<svg width="153" height="166" fill="none" xmlns="http://www.w3.org/2000/svg"><path d="M11.559 152.61v1.869H.838v-1.869h10.72zm-4.362-4.565v11.387H5.21v-11.387h1.987zm39.362-30.435v1.869H35.838v-1.869h10.72zm-4.362-4.565v11.387H40.21v-11.387h1.987zm39.361 4.565v1.869h-10.72v-1.869h10.72zm-4.36-4.565v11.387H75.21v-11.387h1.987zm4.36 39.565v1.869h-10.72v-1.869h10.72zm-4.36-4.565v11.387H75.21v-11.387h1.987zm-30.639 4.565v1.869H35.838v-1.869h10.72zm-4.362-4.565v11.387H40.21v-11.387h1.987zM116.558 47.61v1.87h-10.72v-1.87h10.72zm-4.361-4.565v11.387h-1.987V43.045h1.987zm4.361 39.565v1.87h-10.72v-1.87h10.72zm-4.361-4.565v11.387h-1.987V78.045h1.987z" fill="#E5E5E5"/><path d="M116.558 117.61v1.869h-10.72v-1.869h10.72zm-4.361-4.565v11.387h-1.987v-11.387h1.987z" fill="#FFE500"/><path d="M116.558 152.61v1.869h-10.72v-1.869h10.72zm-4.361-4.565v11.387h-1.987v-11.387h1.987z" fill="#E5E5E5"/><path d="M151.558 12.61v1.87h-10.72v-1.87h10.72zm-4.361-4.565v11.387h-1.987V8.045h1.987z" fill="red"/><path d="M151.558 47.61v1.87h-10.72v-1.87h10.72zm-4.361-4.565v11.387h-1.987V43.045h1.987zm4.361 39.565v1.87h-10.72v-1.87h10.72zm-4.361-4.565v11.387h-1.987V78.045h1.987zm4.361 39.565v1.869h-10.72v-1.869h10.72zm-4.361-4.565v11.387h-1.987v-11.387h1.987zm4.361 39.565v1.869h-10.72v-1.869h10.72zm-4.361-4.565v11.387h-1.987v-11.387h1.987z" fill="#E5E5E5"/></svg>