<svg width="223" height="130" fill="none" xmlns="http://www.w3.org/2000/svg"><path d="M90.034 16.905c-11.452-2.681-21.319-9.86-29.776-8.044-4.67 1.038-7.577 3.633-9.25 7.18-1.586 3.286-2.027 7.525-2.027 12.109H93.03l-2.995-11.245z" fill="#B29B8A"/><path d="M90.034 18.29c-11.452-2.336-21.319-8.65-29.776-7.007-4.67.865-7.577 3.114-9.25 6.228-1.586 2.94-2.027 6.573-2.027 10.552H93.03l-2.995-9.774z" fill="#A88D7B"/><path d="M74.882 27.198c0-1.73-2.026-3.027-4.14-2.768l-2.644.26c-.704-5.795-5.11-12.023-9.778-12.023-5.11 0-9.339 5.103-9.339 11.331 0 1.124.177 2.249.353 3.2h25.548z" fill="#B29B8A"/><path d="M168.087 26.16H51.537c-6.784 0-12.775 4.412-14.713 10.812L28.455 65.17l11.364 32.35h135.933l16.826-39.961-10.572-22.662c-2.466-5.363-7.928-8.737-13.919-8.737z" fill="#FFE500"/><path d="M49.51 26.16c6.783 1.73 16.65 2.768 27.662 2.768s20.879-1.038 27.662-2.768H49.51z" fill="#603189"/><path d="M85.1 26.16c1.322 10.726 2.115 20.76 1.587 29.496l-28.367 8.65 17.707-38.492 9.074.346z" fill="#603189"/><path d="M114.437 75.377c-36.384 0-67.57-8.13-82.106-23.094L28.455 65.17l11.364 32.35h135.933l16.826-39.962-.705-5.103c-9.162-3.893-44.664 22.921-77.436 22.921z" fill="#FFC700"/><path d="M201.388 48.65c11.1 0 18.059 8.822 15.505 19.807l-14.36 60.894h-40.26l14.36-60.894c2.554-10.898 13.655-19.807 24.755-19.807z" fill="#FFE500"/><path d="M125.096 58.77l3.084 18.077c.528 2.509 9.426 6.055 11.717 4.585 24.49-14.791 34.533-28.804 78.141-36.848v-1.297c-.088 0-70.037-1.211-92.942 15.483z" fill="#563C43"/><path d="M183.768 47.958c-24.05 3.46-43.079 9.514-43.871 4.41v-.518c-5.903 1.903-11.101 4.152-14.889 6.92l3.084 18.077c.528 2.509 9.426 6.055 11.716 4.585 24.491-14.791 34.534-28.804 78.142-36.848v-.605c-8.017 1.297-20.439 1.99-34.182 3.979z" fill="#493239"/><path d="M163.154 20.97c-8.545.433-41.229 30.275-41.229 30.275l-3.172 20.586 13.655 10.293c7.753-.952 15.681-8.823 19.117-16.262 4.934-10.552 13.919-23.7 14.8-24.219 1.762-1.038 32.155 7.699 32.155 7.699l.881-.779c-.088-.086-30.833-27.852-36.207-27.592z" fill="#563C43"/><path d="M162.009 32.734s-17.267 23.354-24.315 24.046c-4.669.433-6.431-5.535-5.109-14.964-6.167 5.19-10.66 9.342-10.66 9.342l-3.172 20.586 13.655 10.293c7.753-.951 16.915-8.13 20.439-15.57 4.933-10.552 12.686-24.478 13.478-24.91 1.762-1.038 32.155 7.698 32.155 7.698l.177-.173-36.648-16.348z" fill="#493239"/><path d="M63.341 40.432C50.04 41.384 46.691 27.717 50.04 19.5l1.057.26c-.881 1.99-2.29 12.369 3.788 14.964 6.078 2.595 10.66 0 11.98 2.422 1.234 2.248-1.497 3.2-3.523 3.286z" fill="#B29B8A"/><path d="M84.043 34.637c-1.85-4.584-13.654-3.633-15.152-1.47-1.586 2.162-2.555 18.078-14.8 28.803l26.076-4.325c1.586-3.2 5.727-18.337 3.876-23.008z" fill="red"/><path d="M72.944 52.11c-3.7-.779-6.08-5.277-6.344-10.986-1.761 6.055-6.43 14.878-13.83 21.279l28.014-4.152c.97-1.903 2.29-8.91 3.26-14.618-2.82 5.795-7.136 9.341-11.1 8.476z" fill="#EB0101"/><path d="M124.744 48.39c-.529 13.32 3.612 22.576 15.153 32.955-6.255 4.412-27.839 7.872-68.98 5.71-12.95-.693-24.49-5.277-22.2-15.484l-1.233-1.038 5.11-8.477 8.985-4.93c0 .087 14.624-10.293 63.165-8.736z" fill="red"/><path d="M135.492 77.02c-10.043 5.536-25.284 9.17-42.286 9.17-18.412 0-34.71-4.153-44.665-10.553 1.233 7.438 11.276 10.898 22.376 11.504 41.141 2.249 62.725-1.211 68.98-5.71-1.586-1.556-3.084-3.027-4.405-4.41z" fill="#EB0101"/><path d="M119.723 71.052c0-9.255 1.938-17.472 4.933-22.662-10.307-.346-28.367 1.125-35.679 1.644-2.82 5.795-4.229 7.957-12.862 12.974-13.39 7.785-22.376 12.023-25.372 5.363a4.97 4.97 0 01-.528-2.249l-2.643 4.411 1.233 1.038c-2.29 10.207 9.338 14.791 22.2 15.483 22.553 1.211 39.291.692 50.744-.692-1.234-4.411-2.026-9.687-2.026-15.31z" fill="#EB0101"/><path d="M48.805 67.679l-9.338-12.456 11.364-2.249 9.074 5.104c0 .086-5.99 3.027-11.1 9.6z" fill="#ED7656"/><path d="M33.829 43.806c-.705 2.076.793 5.968 3.788 9.169 3.524 3.719 8.898 6.66 10.043 6.833 2.467.26 9.162-5.796 9.338-7.18.176-1.383-11.364-14.704-14.007-15.223-2.643-.519-7.929 2.681-9.162 6.4z" fill="#FFBB83"/><path d="M137.254 9.034l-14.624 1.73-10.748 37.626 13.743 1.384 11.629-40.74z" fill="#F7EAD5"/><path d="M134.611 10.418l-11.1 1.297-9.867 34.945h10.307l10.66-36.242z" fill="#66C4ED"/><path d="M129.325 17.251l-6.255.779-5.55 19.635h5.726l6.079-20.414zm-3.7 29.149l-38.762 2.336v1.557l38.762-.692v-3.2z" fill="#F7EAD5"/><path d="M59.553 61.451c16.562 2.335 19.645 5.276 24.667 3.027 5.021-2.335 17.619 14.1 11.54 17.127-6.078 3.027-29.6 4.411-40.788.865-5.638-1.817-8.633-8.39-7.4-13.407 1.321-5.017 6.519-8.39 11.98-7.612z" fill="red"/><path d="M84.22 64.392c-.97.432 3.347 12.715 1.762 13.32C76.203 81.864 49.95 71.225 48.1 67.42c-.176.52-.44 1.038-.528 1.557-1.233 5.017 1.762 11.677 7.4 13.407 11.188 3.547 34.71 2.163 40.788-.865 6.079-3.027-6.519-19.375-11.54-17.126z" fill="#EB0101"/><path d="M100.341 43.027s-9.69 16.78-17.53 21.884c-1.675 1.124 2.994 18.683 12.773 16.348 10.395-2.509 12.069-37.367 12.069-37.367l-7.312-.865z" fill="#FFBB83"/><path d="M104.394 52.715c-3.436 10.207-8.37 17.126-13.479 16.694-2.643-.26-5.198-2.336-6.695-5.536-.44.346-.97.779-1.41 1.038-1.674 1.124 2.995 18.683 12.774 16.348 8.017-1.903 10.836-23.268 11.717-32.869.264-2.854-1.85 1.038-2.907 4.325z" fill="#FF9D66"/><path d="M89.241 26.506c-5.285-3.114-3.876-11.763-3.876-11.763s6.607-.346 10.22 1.903c3.523 2.249 4.052 9.428 4.052 9.428s-6.784 2.595-10.396.432z" fill="#B29B8A"/><path d="M92.413 9.813s-2.995 1.99-3.788 5.881l5.11.346c.264-2.162-1.322-6.227-1.322-6.227z" fill="#B29B8A"/><path d="M92.06 11.024s-1.938 1.297-2.466 3.892l3.347.173c.265-1.298-.88-4.065-.88-4.065z" fill="#6B5E55"/><path d="M102.808 17.597s-.881 3.46-4.317 5.536l-2.026-4.584c1.85-1.038 6.343-.952 6.343-.952z" fill="#B29B8A"/><path d="M101.839 18.376s-.529 2.249-2.82 3.546l-1.32-2.94c1.233-.693 4.14-.606 4.14-.606z" fill="#6B5E55"/><path d="M44.577 62.316C33.212 58.251 25.46 49.342 27.838 44.238c3.172-6.92 9.955-8.736 14.184-8.822v1.989s-7.488 1.038-5.55 7.525c1.057 3.72 6.166 7.006 6.166 7.006l-1.321 3.46 3.26 6.92z" fill="#603A30"/><path d="M43.696 54.79c.264-1.21-1.146-2.421-3.084-2.854-1.938-.432-3.788.173-4.052 1.384-.265 1.211 1.145 2.422 3.083 2.855 2.026.346 3.877-.26 4.053-1.384z" fill="#FFBB83"/><path d="M42.815 54.272c.088-.692-.793-1.384-2.026-1.557-1.234-.173-2.203.26-2.38 1.038-.087.692.794 1.384 2.027 1.557 1.233.173 2.29-.26 2.379-1.038z" fill="#ED7656"/><path d="M43.167 54.445c.088-.433-.529-.952-1.321-1.038-.793-.087-1.41.173-1.498.605-.088.433.529.952 1.321 1.038.705.087 1.41-.173 1.498-.605zm43.432-38.491c1.057-1.817-5.11-6.487-7.841-4.757-2.731 1.643-9.867 15.828-10.572 23.786-.352 4.325 15.858 4.757 16.21 1.47.44-3.46.793-18.077 2.203-20.5z" fill="#FFBB83"/><path d="M76.555 35.156c-3.435-.778-7.752-1.557-3.964-14.099-2.114 4.67-4.052 10.034-4.317 13.926-.352 4.325 15.858 4.757 16.21 1.47.176-1.902.44-7.092.793-11.85-.705 10.034-5.374 11.245-8.722 10.553z" fill="#FF9D66"/><path d="M165.797 84.546H55.853c-3.172 0-5.726 2.508-5.726 5.622v39.27h121.308v-39.27c.088-3.114-2.467-5.622-5.638-5.622z" fill="#FFE500"/><path d="M22.288 48.65c-11.1 0-18.06 8.822-15.505 19.807l14.36 60.894h40.26l-14.36-60.894C44.49 57.56 33.388 48.65 22.288 48.65z" fill="#FFE500"/><path d="M197.864 50.034h3.7l5.286-6.142s-5.991 2.768-8.281 3.72c-2.379.865-.705 2.422-.705 2.422zM218.39 46.4l4.405-8.822s-6.607 4.844-6.96 6.574c-.352 1.643 2.555 2.249 2.555 2.249zM81.313 64.911c-.353 9.082 5.11 19.635 8.457 19.635 3.348 0 8.81-1.557 8.721-5.104 0 0-4.933 0-14.8-15.05-.616-1.038-2.29-.087-2.378.519zm-14.36-25.257c-1.85-1.817-.529-5.536 1.321-5.622 1.85-.173 10.836 3.2 16.21 1.73.97-.26.793 3.2-.088 4.41-2.114 3.028-14.888 1.99-17.443-.518z" fill="#F7EAD5"/><path d="M90.475 23.133c.793.865 2.026-.605 2.026-.605s-.881 1.384.176 2.248c1.057.865 2.995-.605.352-2.68-2.378-1.817-4.58-1.125-2.554 1.037z" fill="#DDCDC3"/><path d="M92.237 23.133c-.793-.432-.529-1.47-.089-1.643.44-.173 1.674.778 1.586 1.124-.176.346-1.057.779-1.497.52zm-1.146-4.238c.353.26.44.692.265.951 0 0 .088 0 .088-.086.264-.26.088-.779-.265-1.038-.352-.26-.88-.26-1.145 0v.086c.264-.173.705-.173 1.057.087zm4.934 4.238c.352.26.44.692.264.951 0 0 .088 0 .088-.086.264-.26.088-.779-.264-1.038-.353-.26-.881-.26-1.145 0v.087c.264-.174.704-.174 1.057.086z" fill="#6B5E55"/><path d="M160.687 124.421H60.698v4.93h99.989v-4.93z" fill="#FFC700"/><path d="M58.584 129.351h7.84l-13.83-35.55 5.99 35.55zm105.451 0h-7.841l13.831-35.55-5.99 35.55zM22.993 58.337c7.929 0 15.857 5.103 19.734 12.196-2.29-8.563-11.012-15.31-19.822-15.31-7.224 0-12.245 4.585-12.774 10.985 1.938-4.757 6.695-7.87 12.862-7.87zm177.161 0c-7.928 0-15.857 5.103-19.733 12.196 2.29-8.563 11.012-15.31 19.821-15.31 7.224 0 12.246 4.585 12.774 10.985-1.938-4.757-6.695-7.87-12.862-7.87z" fill="#FFC700"/><path d="M92.325 75.377c-1.234 2.595-2.996 4.152-4.934 4.152-1.145 0-2.29-.606-3.26-1.644 1.763 3.893 4.053 6.574 5.727 6.574 3.348 0 8.81-1.557 8.722-5.103 0 .086-2.115.086-6.255-3.979z" fill="#E5D1B5"/><path d="M21.584.04c.089 0 .089-.09 0 0 0-.09 0 0 0 0z" fill="#FCC454"/><path d="M85.717 18.29c1.85-.866 1.586-2.596 5.991-3.028.705-.087.97-1.73.176-1.903-.793-.173-5.814-.173-6.783-.173-1.145 0-1.322 6.055.616 5.103z" fill="#FFBB83"/><path d="M83.25 12.494c1.41-1.643 4.053-.778 3.877.865-.176 1.557-5.11.605-3.876-.865z" fill="#FFBB83"/><path d="M81.048 11.715c1.41-1.643 4.053-.778 3.877.866-.177 1.557-5.11.605-3.877-.866zm26.077 29.409c-6.255-1.038-7.488.952-8.634 5.277l8.105-.087s2.819-.778 4.757-.865c1.938-.086 2.027-3.286-4.228-4.325z" fill="#FFBB83"/><path d="M110.208 44.065c.353 2.336.265 3.374 1.146 3.46.792.087 1.761-.086 1.761-.519 0-.432-.264-3.287-.969-3.546-.704-.346-1.938.605-1.938.605zm-3.083-.173c.352 2.336.264 3.374 1.145 3.46.793.087 1.762-.086 1.762-.519 0-.432-.264-3.287-.969-3.546-.617-.346-1.938.605-1.938.605z" fill="#FFBB83"/><path d="M45.722 44.238c-.44-.605-1.145-.865-1.498-.519-.352.346-.264 1.038.177 1.644.44.605 1.145.865 1.497.519.44-.26.352-1.038-.176-1.644z" fill="#604748"/><path d="M42.815 41.21l-2.379 1.99a.525.525 0 00-.088.606l.617.692c.176.173.44.173.704 0l2.379-1.99a.525.525 0 00.088-.605l-.617-.692c-.176-.173-.44-.173-.704 0z" fill="#603A30"/><path d="M48.277 42.249c-.353-.433-.793-.692-.97-.52-.175.174 0 .78.353 1.212.352.432.793.692.97.519.175-.173 0-.692-.353-1.211z" fill="#604748"/><path d="M45.81 38.703l-1.057.95c-.088.087 0 .26.088.52l.617.692c.176.173.352.26.44.173l1.057-.952c.088-.086 0-.26-.088-.519l-.617-.692c-.176-.173-.352-.259-.44-.172z" fill="#603A30"/><path d="M47.132 44.065c2.73.346 4.404.865 4.669 1.73.176.606-.265 1.125-.617 1.47 0 0 1.586-1.037 1.41-1.989-.177-.865-2.115-1.124-5.462-1.21z" fill="#ED7656"/><path d="M52.681 48.044L49.07 50.64s.969 2.681 3.435 1.211c1.938-1.038.176-3.806.176-3.806z" fill="#422931"/><path d="M53.034 49.515a7.271 7.271 0 00-.44-1.125l-2.908 2.163s.264.692.97 1.038l2.378-2.076z" fill="#FFEFDC"/></svg>