<svg width="110" height="174" fill="none" xmlns="http://www.w3.org/2000/svg"><path d="M85.41 36.825H59.278c-3.97 0-8.033 3.223-8.126 6.353l-1.57 74.203h38.689l1.662-76.965c0-2.118-1.847-3.59-4.525-3.59z" fill="#F9C138"/><path d="M54.477 79.635c4.617-17.032 13.389-32.499 23.361-42.81h-15.79c-3.6 0-7.294 2.854-7.386 5.8l-.831 39.588c.185-.829.37-1.75.646-2.578z" fill="#FFDD50"/><path d="M45.336 174h1.385l3.047-54.41H45.89L45.336 174zm6.741 0h1.385l3.047-54.41H52.63L52.077 174zm26.961 0h1.293l.831-54.41h-3.878L79.038 174zm8.126 0h1.293l.923-54.41h-3.878L87.164 174z" fill="#C9B695"/><path d="M90.395 116.921H46.814c-.74 0-1.293.552-1.293 1.288v1.105c0 .737.554 1.289 1.293 1.289h43.49c.738 0 1.292-.552 1.292-1.289v-1.105c.092-.736-.462-1.288-1.2-1.288z" fill="#F9C138"/><path d="M53.646 23.016c-5.632-3.498-5.17-9.667 0-11.876 6.28-2.762 10.988 1.565 10.988 1.565s4.248-1.381 4.617 7.549c.37 7.273-3.047 11.508-3.047 11.508l-12.558-8.746z" fill="#7C3143"/><path d="M86.887 40.784c11.819 9.206 29.362 36.55 11.357 45.02-18.005 8.561-11.357-45.02-11.357-45.02z" fill="#9569B7"/><path d="M104.43 74.387c-5.263 2.21-13.665-4.603-18.744-15.19-.184 14.638 1.755 31.762 12.558 26.606 5.632-2.67 7.756-7.18 7.756-12.428-.462.46-1.016.828-1.57 1.012z" fill="#7B50A5"/><path d="M41.643 41.705c-12.096 11.784-22.53 27.527-20.498 37.01 2.031 9.482 16.99 8.837 16.99 8.837l3.508-45.847z" fill="#9569B7"/><path d="M38.78 52.292c-3.508 12.429-8.771 21.911-13.942 21.911-1.662 0-2.678.553-3.509-1.289-.37 2.118-.923 4.603-.554 6.353 2.032 9.482 17.452 8.285 17.452 8.285l2.677-35.26c-.185.368-2.123-.276-2.123 0z" fill="#7B50A5"/><path d="M89.103 43.73c-3.232-5.708-14.035-12.06-22.53-12.06-8.495 0-21.237 6.26-24.93 10.035-3.694 3.866-7.11 33.695-1.57 56.527l51.8 16.939c14.404-12.06.554-65.733-2.77-71.44z" fill="#9569B7"/><path d="M68.42 76.32l-2.032 4.512-14.68 7.089-10.804-10.496-3.047-18.873 7.017-7.64 18.283 5.8L68.42 76.32z" fill="#7B50A5"/><path d="M88.918 62.511c-2.308 15.65-14.681 25.41-27.239 25.41-12.834 0-21.606-10.035-23.083-26.146-.185-1.566-.831-7.09-1.293 1.38-.646 10.772-.092 23.845 2.678 35.26l51.8 16.941c10.064-8.47 6.278-37.286 2.03-55.79-1.754-8.102-4.616 1.104-4.893 2.945z" fill="#7B50A5"/><path d="M74.145 50.635l7.11-2.578c4.524 6.168 16.897 23.845 16.897 31.21 0 10.219-10.434 14.177-14.128 12.704-4.34-1.749-8.31-6.076-8.864-10.495-2.031-14.914-1.015-30.841-1.015-30.841z" fill="#7B50A5"/><path d="M74.237 33.05c-2.585-.828-5.263-1.748-7.664-1.748-3.785 0-8.31 1.565-12.557 3.222.277 7.549 5.17 13.165 7.94 14.914 0 0 11.82-5.984 12.28-16.387z" fill="#684887"/><path d="M55.216 58.736c-.646-1.657-3.786-9.114-3.97-10.31-.093-.83.554-1.013 1.57-1.105 1.015-.092 7.201-.369 7.663-.276.462.091.831.184 1.2 1.288.37 1.105 6.187 14.823 6.464 15.375.277.644-.185 1.289-1.108 1.565-1.293.46-5.448 1.933-6.74 2.302-1.109.276-1.386-.46-1.847-1.381-.739-1.565-2.678-5.892-3.232-7.458z" fill="#3D2D32"/><path d="M54.939 34.248c.923 2.854 3.324 4.787 6.463 4.787 3.97 0 8.865-2.762 8.68-7.181-1.2-.276-2.4-.46-3.509-.46-3.508-.092-7.664 1.288-11.634 2.854z" fill="#ED4A66"/><path d="M33.431 90.891c7.353-.789 12.689-7.207 11.92-14.335-.77-7.129-7.353-12.268-14.706-11.479-7.352.79-12.688 7.207-11.919 14.335.77 7.129 7.353 12.268 14.706 11.48z" fill="#EDD1BE"/><path d="M39.98 67.483c-.83-.553-1.753-1.105-2.677-1.474-6.833-2.761-14.681.369-17.543 6.997-.831 1.842-1.108 3.775-1.016 5.708.83.553 1.754 1.105 2.678 1.473 6.832 2.762 14.68-.368 17.543-6.996a12.7 12.7 0 001.016-5.708z" fill="#FFEEE1"/><path d="M21.422 77.057c-1.94 5.524 6.832 12.889 12.372 12.889 7.018 0 18.929-17.216 24.561-23.2l-2.493-5.524c.093-.092-28.07-1.933-34.44 15.835z" fill="#FFBB83"/><path d="M40.904 74.295c-7.387 3.499-14.589 5.156-19.76 4.787.37 5.156 7.757 10.864 12.65 10.864 7.018 0 20.222-16.387 25.577-22.648 0-.092-11.542 3.683-18.467 6.997z" fill="#FF9D66"/><path d="M97.89 87.471c6.457-3.153 9.037-11.113 5.763-17.78-3.275-6.667-11.164-9.516-17.622-6.363-6.457 3.153-9.038 11.114-5.763 17.78 3.274 6.668 11.163 9.516 17.621 6.363z" fill="#EDD1BE"/><path d="M104.8 78.438c.184-1.013.277-2.025.277-3.038-.185-7.365-6.28-13.35-13.481-13.257-2.032 0-3.97.46-5.633 1.38a16.9 16.9 0 00-.277 3.039c.185 7.365 6.28 13.35 13.481 13.257 2.032-.092 3.878-.552 5.633-1.38z" fill="#FFEEE1"/><path d="M78.207 47.413l7.11-2.67c4.617 5.708 17.544 22.003 17.728 29.092.185 9.667-10.249 13.81-14.127 12.429-4.432-1.473-8.495-5.524-9.141-9.667-2.308-14.086-1.57-29.184-1.57-29.184z" fill="#FFBB83"/><path d="M101.291 78.438c-4.801 2.025-12.65-5.616-17.636-17.124-2.308-5.247-5.448-13.993-5.448-13.993s-.738 15.19 1.478 29.184c.646 4.143 4.801 8.193 9.14 9.666 3.233 1.105 11.266-1.657 13.482-8.562a2.889 2.889 0 01-1.016.83z" fill="#FF9D66"/><path d="M68.605 31.486s-1.847-8.286-1.847-8.47l-9.695 1.565s-2.678 11.876 4.801 11.876c7.48 0 6.74-4.971 6.74-4.971z" fill="#ED7656"/><path d="M67.035 33.511c.277 2.578-11.265 4.42-12.373 2.118-.646-1.381-1.57-5.524-1.939-9.667-.739-9.114 5.725-12.889 9.141-11.876 6.648 2.025 4.248 11.14 5.17 19.425z" fill="#FFBB83"/><path d="M33.61 118.946h50.784c10.064 0 12.557-13.809 7.017-20.162-11.542-13.165-66.388-8.101-70.636 5.34-2.308 7.181 12.835 14.822 12.835 14.822z" fill="#423135"/><path d="M61.864 101.27c12.004 0 22.345-1.841 27.516-4.42-10.803-7.917-40.443-7.18-57.063-1.288 3.97 3.314 15.697 5.708 29.547 5.708z" fill="#564448"/><path d="M45.336 120.235c1.293-4.603-3.508-15.743-5.91-19.149-2.492-3.499-19.02-.829-19.02 4.603 0 20.622 6.648 42.533 22.068 67.206h.554c-.462-13.901.923-47.689 2.308-52.66zm19.668-.46c.276-4.604 2.585-13.165 7.386-16.94 3.417-2.67 17.082-.829 16.897 4.511-.646 20.07-8.217 41.429-25.115 65.549h-.553c.923-13.533.923-45.571 1.385-53.12z" fill="#423135"/><path d="M85.871 40.508c.923-2.854 1.477-7.181-.462-7.641-1.939-.46-4.155.276-4.986 1.104-.738.829 5.448 6.537 5.448 6.537z" fill="#FFBB83"/><path d="M60.387 174h5.54s-.924-3.498-2.309-2.946c-1.2.644-3.231 2.946-3.231 2.946zm-23.546 0h7.48s-.647-3.222-2.493-2.67c-1.755.553-4.987 2.67-4.987 2.67z" fill="#F9DEB7"/><path d="M51.8 61.13c3.324-2.025 7.848-3.498 9.51-3.222 1.662.276 2.493 7.457 2.216 8.654-.277 1.105-7.479 1.75-7.479 1.75L51.8 61.13z" fill="#FFBB83"/><path d="M67.589 60.854c-1.108 1.289-2.77 2.762-6.094 3.775l.923 2.393c2.955-.552 4.801-1.933 5.54-3.13 1.293-1.933.093-3.59-.37-3.038z" fill="#FFBB83"/><path d="M67.22 56.62c-1.108 1.472-2.678 3.221-6.28 4.878l1.294 2.21c3.139-1.105 4.893-2.486 5.632-3.867 1.293-2.21-.185-3.866-.647-3.222zm-11.45-3.683c-.646 5.707-2.585 5.063-4.063 8.47l3.97.368c2.124-2.946 2.77-5.432 2.494-6.905-.277-2.486-2.309-2.67-2.4-1.933z" fill="#FFBB83"/><path d="M65.373 53.397c-.831 1.473-2.216 3.222-5.356 4.787l1.2 2.67c2.77-1.105 4.433-2.946 4.987-4.235.923-2.301-.462-3.959-.831-3.222z" fill="#FFBB83"/><path d="M67.958 28.54l-1.2-1.934-2.124-.184s-3.693-13.441-.83-12.244c2.861 1.197 4.246 7.825 4.246 7.825l-.092 6.537z" fill="#7C3143"/><path d="M67.589 24.765c.184-1.565-.277-2.854-.924-2.854-.646 0-1.292 1.289-1.477 2.854-.184 1.565.277 2.854.924 2.854.646 0 1.385-1.289 1.477-2.854z" fill="#FFBB83"/><path d="M67.127 24.857c.093-1.013-.184-1.75-.554-1.75-.37 0-.83.83-.923 1.75-.093 1.013.184 1.75.554 1.75.37 0 .83-.737.923-1.75z" fill="#ED7656"/><path d="M66.665 25.962c.093-.645-.092-1.105-.369-1.105s-.554.553-.554 1.105c-.092.644.093 1.105.37 1.105.276 0 .553-.553.553-1.105zm16.713 6.813c-1.293-2.21-3.693 2.761-5.17 4.327-1.478 1.565-1.201 5.708 0 10.495l8.586-1.013c-2.123-3.59 1.108-6.26-3.416-13.81z" fill="#FFBB83"/><path d="M77.746 43.638c-2.863-.552-3.417-2.21-3.601-3.406-.185-1.197.461-3.59 1.57-3.683 1.107-.092 2.123.368 2.77 1.381.553 1.013-.74 5.708-.74 5.708z" fill="#FFBB83"/><path d="M76.915 41.428c-.554 0-.739-.368-.831-.552-.093-.276 0-.736.184-.828a.444.444 0 01.554.184c.277.184.093 1.197.093 1.197z" fill="#FF9D66"/><path d="M79.315 40.876c-3.14-1.104-3.6-2.946-3.693-4.327-.092-1.289.923-3.774 2.216-3.682 1.2.092 2.4.828 2.955 1.933.554 1.197-1.478 6.076-1.478 6.076z" fill="#FFBB83"/><path d="M80.608 35.352c-2.031-3.682-2.585-4.879-5.54-2.485-.831.644-2.955-1.842-1.293-3.038 1.57-1.197 5.633-2.947 6.925-1.197 1.293 1.657 3.14 4.787 3.232 5.34.092.46-2.862 2.209-3.324 1.38z" fill="#FFBB83"/><path d="M55.862 24.397c-.092-.645-.554-1.105-.923-1.105-.37.092-.554.645-.462 1.289.093.644.554 1.105.924 1.105s.554-.645.461-1.29z" fill="#604748"/><path d="M55.308 20.622l-2.493.92c-.184.093-.369.277-.277.553l.277.737c.093.184.277.276.554.276l2.493-.92c.185-.093.37-.277.277-.553l-.277-.737c-.092-.276-.277-.368-.554-.276z" fill="#7C3143"/><path d="M61.68 23.844c-.093-.644-.554-1.104-.924-1.104-.37.092-.554.644-.462 1.289.093.644.555 1.104.924 1.104.37 0 .646-.644.461-1.289z" fill="#604748"/><path d="M62.141 20.53l-2.585-.368c-.185 0-.462.092-.462.368l-.092.829c0 .184.092.46.37.46l2.492.276c.185 0 .462-.092.462-.368l.092-.829c.093-.184-.092-.368-.277-.368z" fill="#7C3143"/><path d="M59.371 28.171c-.739.093-1.2-.092-1.293-.92-.092-.645 0-1.565.185-2.394v-.092s-.554 2.026-.37 3.038c.093.737.647.645 1.478.368z" fill="#ED7656"/><path d="M61.864 29l-4.709 1.841s.646 2.026 2.955 1.841c2.4-.276 1.754-3.682 1.754-3.682z" fill="#422931"/><path d="M61.587 30.841c.092-.736 0-1.38 0-1.38l-3.786 1.472s.185.553.74 1.013l3.046-1.105z" fill="#FFEFDC"/><path d="M0 25.41l4.063 6.72c8.956-2.025 15.327-8.378 15.327-8.378l-4.709-5.34S8.864 24.766 0 25.41z" fill="#CCC848"/><path d="M12.373 25.041c-.37-1.012-1.755-1.473-2.955-1.012-1.293.46-1.939 1.657-1.57 2.762.37 1.104 1.755 1.473 2.955 1.012 1.293-.552 1.94-1.749 1.57-2.762z" fill="#E5DE5C"/><path d="M42.474 18.229c-7.387-6.169-18.375-5.34-24.561 1.933-6.187 7.273-5.356 18.229 1.939 24.489 7.017 5.984 17.451 5.431 23.822-1.105l4.802 2.578-3.324-4.327c5.355-7.273 4.247-17.584-2.678-23.568z" fill="red"/><path d="M33.517 0l-6.094 4.88c3.14 8.653 10.342 14.085 10.342 14.085l4.709-5.34c-.092 0-7.11-4.971-8.957-13.625z" fill="#CCC848"/><path d="M35.549 12.244c1.016-.552 1.293-1.933.646-3.038-.646-1.289-2.031-1.749-2.955-1.289-1.015.553-1.292 1.934-.646 3.039.646 1.196 1.94 1.749 2.955 1.288z" fill="#E5DE5C"/><path d="M11.357 63.708l5.817-2.67c-.83-7.457-5.355-13.073-5.355-13.073l-4.71 3.314c-.092 0 3.787 5.432 4.248 12.429z" fill="#CCC848"/><path d="M14.127 54.502c-.554-.737-1.662-.829-2.585-.184-.924.644-1.2 1.749-.646 2.485.553.737 1.661.829 2.585.184.83-.644 1.2-1.749.646-2.485z" fill="#E5DE5C"/><path d="M60.11 49.806l-1.847.184c-.462 0-.923-.368-.923-.828 0-.46.37-.92.83-.92l1.847-.093c.462 0 .924.368.924.829.092.552-.277.828-.831.828z" fill="#564448"/><path d="M19.298 30.381v-.184s0-.092.092-.092c0 0 .093 0 .093-.092.184-.092.461-.092.738 0 .093 0 .185.092.277.276.093.092.093.184.093.276 0 .092.092.184.092.276 0 .092 0 .184.092.368v.185h.647c.184 0 .369.092.461.092.093.092.185.092.277.276.093.092.093.276.093.368v.368c0 .093-.093.185-.185.185h-.739c-.184 0-.369 0-.554.092v.552c0 .184 0 .368-.092.552-.092.184-.092.369-.185.46-.092.093-.184.185-.277.185-.092 0-.277.092-.461.092-.185 0-.277 0-.37-.092a.198.198 0 01-.184-.184v-.276c0-.185.092-.369.092-.553v-.552c-.462.092-.831.184-1.2.276h-.185s-.092 0-.092-.092l-.093-.092a1.73 1.73 0 01-.184-.737c0-.092.092-.184.184-.276.093-.092.185-.092.277-.184.093 0 .185-.092.277-.092.093 0 .185-.092.277-.092.093 0 .185-.092.277-.092h.37c.184-.46.184-.829.092-1.197zm7.572-2.025c.092 0 .184 0 .276.092.093 0 .185.092.185.184.092.092.092.276.092.552s0 .552-.092.92c-.092.369-.185.83-.277 1.198-.092.46-.277.828-.37 1.288-.184.369-.276.737-.461 1.013-.092.092-.185.276-.277.46a.72.72 0 01-.37.369c-.092 0-.184.092-.276.092-.093 0-.277 0-.462.092s-.277 0-.462-.092c-.092-.092-.184-.184-.092-.276 0-.092.092-.184.092-.184 0-.093.093-.185.093-.185a20.22 20.22 0 00.83-1.933c.278-.737.37-1.473.555-2.302h-1.2c-.462 0-.832.093-1.293.277-.093 0-.093 0-.185.092h-.185c-.277 0-.277-.092-.184-.46.092-.277.184-.553.277-.645.092-.092.184-.184.369-.276.185-.092.277-.092.37-.184.461-.092 1.015-.184 1.569-.184s1.016.092 1.477.184c-.092-.184-.092-.184 0-.092-.092 0-.092 0 0 0zm1.661 5.063c-.184-.184-.277-.368-.369-.552-.092-.184-.185-.369-.277-.645 0-.092-.092-.184-.092-.276-.185-.552-.185-1.197-.093-1.75.093-.552.277-.92.647-1.288.184-.184.369-.276.646-.46.277-.092.462-.184.739-.184h.461c.185 0 .277.092.462.092.185.092.462.184.646.276.185.092.37.276.554.46a4 4 0 01.554.645c.185.276.277.46.37.736.184.368.277.736.277 1.105 0 .368 0 .736-.185 1.104-.092.369-.37.645-.646.921-.185.184-.462.368-.739.553-.277.184-.554.184-.83.184-.278 0-.647-.092-.924-.184-.462-.093-.831-.369-1.2-.737zm1.478-.46c.277.184.646.184 1.108-.092.461-.276.738-.645.646-1.197 0-.368-.092-.645-.277-.829-.185-.184-.37-.276-.646-.368a.72.72 0 00-.739.184c-.277.184-.462.368-.554.645-.092.276-.185.552-.092.828.092.276.184.645.554.829zm4.339.46c-.184-.184-.277-.368-.369-.552-.092-.184-.185-.369-.277-.645 0-.092-.092-.184-.092-.276-.185-.552-.185-1.197-.093-1.75.093-.552.277-.92.647-1.288.184-.184.37-.276.646-.46.277-.092.462-.184.739-.184h.462c.184 0 .276.092.461.092.185.092.462.184.646.276.185.092.37.276.554.46.185.184.37.368.555.645.184.276.277.46.369.736.185.368.277.736.277 1.105 0 .368 0 .736-.185 1.104-.092.369-.37.645-.646.921-.185.184-.462.368-.739.553-.277.184-.554.184-.83.184-.278 0-.647-.092-.924-.184a1.806 1.806 0 01-1.2-.737zm1.386-.46c.276.184.646.184 1.108-.092.461-.276.738-.645.646-1.197 0-.368-.093-.645-.277-.829-.185-.184-.37-.276-.646-.368a.72.72 0 00-.74.184c-.276.184-.46.368-.553.645-.093.276-.185.552-.093.828.093.276.277.645.554.829zm4.432.46c-.185-.184-.277-.368-.37-.552a4.61 4.61 0 01-.277-.645c0-.092-.092-.184-.092-.276-.185-.552-.185-1.197-.093-1.75.093-.552.277-.92.647-1.288.184-.184.37-.276.646-.46.277-.092.462-.184.739-.184h.462c.184 0 .277.092.461.092.185.092.462.184.647.276.184.092.369.276.554.46.184.184.369.368.554.645.184.276.277.46.369.736.185.368.277.736.277 1.105 0 .368 0 .736-.185 1.104-.092.369-.37.645-.646.921-.185.184-.462.368-.739.553-.277.184-.554.184-.83.184-.278 0-.647-.092-.924-.184a1.806 1.806 0 01-1.2-.737zm1.385-.46c.276.184.646.184 1.108-.092.461-.276.738-.645.646-1.197 0-.368-.092-.645-.277-.829-.185-.184-.37-.276-.646-.368a.72.72 0 00-.74.184c-.276.184-.46.368-.553.645-.093.276-.185.552-.093.828.093.276.277.645.554.829z" fill="#fff"/></svg>