<svg width="185" height="100" fill="none" xmlns="http://www.w3.org/2000/svg"><path d="M83.074 21.18c.877.575 1.755.192 2.535-.478.975-.862 1.56-2.106 1.657-2.776.098-1.053-.877-.575-2.535-.479-.975.096-1.657 1.628-1.657 1.628v2.106z" fill="#FFBB83"/><path d="M85.414 17.83c1.365-1.245 5.168-1.245 5.07-.766-.097.766-2.828.096-3.51 1.149-.585.957-1.56-.383-1.56-.383z" fill="#FFBB83"/><path d="M84.926 18.883c1.073-1.149 4.68-1.245 4.583-.67-.195.861-2.73.096-3.413 1.149-.487.861-1.17-.479-1.17-.479z" fill="#FFBB83"/><path d="M174.927 48.084c-17.941-14.553-55.092-3.16-71.961-3.639-16.87-.478-85.419-27.764-100.435 4.979C-4.977 65.795 5.456 78.24 17.645 86.57c12.286 8.425 27.107 12.637 42.124 12.637h74.79c56.457-.766 58.31-36.572 40.368-51.124z" fill="red"/><path d="M93.117 83.603C58.6 79.39 33.831 64.838 38.122 52.105c1.267-3.734 11.213-1.724 16.381-6.032.488-.383-10.92-11.776-10.823-12.446-18.04-1.34-34.616 1.532-41.15 15.701-7.507 16.371 2.926 28.817 15.115 37.147C29.93 94.9 44.752 99.112 59.769 99.112h74.79c32.08-.382 46.414-12.158 49.632-24.892-9.361 11.776-65.624 12.446-91.074 9.383z" fill="#EB0101"/><path d="M70.593 12.564C68.837 5.097 56.649 2.416 56.649 2.416c-4.29-4.117-11.701-2.394-23.11.862-11.409 3.255-19.014 9.956-16.967 22.307 2.146 12.35 14.724 21.062 33.544 15.414l6.435-1.436c11.799-1.915 15.797-19.627 14.042-26.999z" fill="#44262A"/><path d="M58.209 37.074c3.802 8.042 21.16 12.637 31.398 6.605l-1.755-4.212s-7.801 1.532-14.14.383c-4.29-.766-16.966-5.84-15.503-2.776z" fill="#FFBB83"/><path d="M90.484 42.626c-.877 2.202-4.388 2.49-5.46-.383-.975-2.872-1.853-13.882-2.048-23.073l.878.096c1.072 4.117 8.19 19.722 6.63 23.36z" fill="#FFBB83"/><path d="M73.518 44.445C78.88 54.69 97.212 51.53 97.212 51.53l-3.9 9.67s-22.33-2.01-26.23-6.128c-3.9-4.116 6.436-10.627 6.436-10.627z" fill="#FF9D66"/><path d="M93.312 61.2l3.9-9.67s-3.217.575-7.41.479c-1.366.574-2.73 1.244-4.193 2.01-2.633 1.532-4.973 3.351-6.728 5.17 7.02 1.34 14.431 2.01 14.431 2.01z" fill="#7D4BA0"/><path d="M69.325 53.924c-16.967-8.33-20.38-12.35-20.672-14.936-.293-2.585 8.093-4.595 10.726-3.638 2.633.958 18.82 7.18 19.794 9.287.78 1.723-8.19 10.148-9.848 9.287z" fill="#FFBB83"/><path d="M67.765 43.392l4.193 4.021 1.462-1.244-5.655-2.777zm-8.386-8.042c-2.633-.957-11.019 1.053-10.726 3.638 0 .192.097.383.097.67a30.22 30.22 0 004.29.288c5.071 0 9.362-1.15 10.824-2.872-2.047-.766-3.803-1.437-4.485-1.724z" fill="#FF9D66"/><path d="M79.076 44.637c-.975-2.106-17.162-8.33-19.795-9.287-.39-.096-.78-.191-1.267-.191 5.46 2.393 15.894 6.893 16.479 8.042.585 1.149-6.24 4.595-7.508 4.5-2.73-.192-17.162-12.638-18.137-9.383-.098.287-.195.479-.195.766.292 2.585 3.705 6.606 20.672 14.935 1.657.766 10.628-7.659 9.75-9.382z" fill="#8E56AF"/><path d="M70.787 50.285c-15.114-6.797-18.526-11.488-21.94-11.967-.097.192-.194.479-.194.67.292 2.585 3.705 6.606 20.672 14.936 1.462.766 8.97-6.032 9.75-8.617-2.437 2.968-7.118 5.553-8.288 4.978z" fill="#7D4BA0"/><path d="M88.924 60.913c-1.56-2.968 1.463-7.66 6.143-9.191 17.747-6.128 42.612-7.564 45.05-6.894 3.023.766 7.313 9.67 7.313 9.67-25.645 5.457-41.442 18.286-58.506 6.415z" fill="#FF9D66"/><path d="M48.653 38.701c-.098 8.904 15.309 19.627 28.668 17.807l-1.853-5.552s-4.583 1.627-12.969-3.639c-3.9-2.393-13.846-11.967-13.846-8.616z" fill="#FFBB83"/><path d="M76.345 56.221c-2.34-.287-3.412-3.542-.877-5.265 2.535-1.724 13.066-5.553 22.037-8.138l.097.861c-3.9 2.107-17.356 13.02-21.257 12.542z" fill="#FFBB83"/><path d="M50.895 45.786c22.038 10.435 60.164 20.392 98.192 7.084 0 0-20.282 35.328-66.793 27.669C53.43 75.752 43.68 66.944 38.998 57.753c-3.9-7.467 4.193-15.605 11.896-11.967z" fill="red"/><path d="M136.509 90.304c-11.701-10.627-21.452-21.062-27.79-31.02l5.558-.574 35.395 27.86-13.163 3.734z" fill="#EB0101"/><path d="M147.04 87.91l-19.21-30.157 5.558-.287 27.888 26.807-14.236 3.638z" fill="#EB0101"/><path d="M130.951 54.498c3.315 6.223 30.813 33.126 30.813 33.126l.877-.288s-16.966-40.114-21.549-42.125c-3.121-1.436-14.334 1.436-10.141 9.287z" fill="#FFBB83"/><path d="M132.706 47.51c-.195-.288-.293-.575-.39-.767-2.633 1.628-4.388 4.213-2.438 7.947 3.315 6.223 31.886 33.03 31.886 33.03l.292-.096c-5.558-7.372-26.522-34.754-29.35-40.115z" fill="#FF9D66"/><path d="M110.669 58.519c6.63 6.51 45.146 33.221 45.146 33.221l.976-.095s-28.473-40.498-31.496-41.838c-3.12-1.34-20.769 2.68-14.626 8.712z" fill="#FFBB83"/><path d="M116.324 51.722c-.292-.288-.78-1.054-.975-1.34-4.583 1.531-8.678 5.073-5.265 8.424 6.63 6.51 45.732 32.934 45.732 32.934l.877-.095c-7.898-7.755-34.713-34.466-40.369-39.923zM52.553 23.383l-5.85-3.447s.585 9.957 3.997 16.85c4.193 2.202 7.216.479 6.046-1.723-2.535-4.404-4.193-11.68-4.193-11.68z" fill="#FF9D66"/><path d="M58.989 10.937c-3.413-4.213-11.604-2.202-12.481 1.915-1.463 7.18 2.925 14.648 3.9 15.605 4.193 4.117 9.459 5.17 9.459 5.17s8.093-11.68-.878-22.69z" fill="#FFBB83"/><path d="M147.332 12.373l-36.273 5.361-6.728 32.169 36.273-5.266 6.728-32.264z" fill="#E2CFB3"/><path d="M148.99 12.181l-36.371 5.362-6.728 32.168 36.273-5.266 6.826-32.264z" fill="#F7EAD5"/><path d="M104.331 49.903L87.559 53.54l-.487-.958 19.209-6.893-1.95 4.213z" fill="#E2CFB3"/><path d="M56.161 5.384c7.8 4.883-9.556 12.159-9.36 27.19 0 0-10.337-11.202-6.241-21.254 4.095-9.957 11.408-8.521 15.601-5.936z" fill="#44262A"/><path d="M94.482 15.245l-8.873.957 2.73 13.595 5.656-.574.487-13.978z" fill="#F2DB79"/><path d="M94.677 14.766l-9.75 1.15.097 1.818 10.336-.861-.683-2.107z" fill="#F7EAD5"/><path d="M81.22 6.054l-.682.574 7.801 10.053.585-.574-7.703-10.053z" fill="#F7EAD5"/><path d="M81.416 7.011l-.098-.861-6.143 1.053.195.862 6.046-1.054z" fill="#F7EAD5"/><path d="M160.788 84.368c4.388 3.351 8.874 5.553 8.874 5.553s-6.241.479-8.971-2.01c-1.073-.957.097-3.543.097-3.543zm-6.435 4.787c4.68 2.873 9.263 4.692 9.263 4.692s-5.753 1.149-8.776-1.053c-1.17-.958-.487-3.639-.487-3.639z" fill="#FFBB83"/><path d="M131.048 30.563c.488-2.393-.195-4.308-1.56-4.308s-2.925 1.915-3.413 4.308c-.487 2.394.195 4.308 1.56 4.308 1.366 0 2.828-1.914 3.413-4.308z" fill="#E2CFB3"/><path d="M47.483 21.564c-.78-1.15-2.145-1.915-2.925-1.532-.878.287-.878 1.532-.098 2.776.78 1.15 2.145 1.915 2.925 1.532.878-.287.975-1.532.098-2.776z" fill="#FFBB83"/><path d="M46.898 22.138c-.488-.67-1.268-1.149-1.755-.957-.488.191-.488.957 0 1.627.487.67 1.267 1.15 1.755.958.487-.287.487-.958 0-1.628z" fill="#ED7656"/><path d="M47.19 22.808c-.292-.478-.877-.765-1.267-.67-.39.096-.39.67 0 1.149.292.479.877.766 1.267.67.293-.191.293-.67 0-1.149z" fill="#FFBB83"/><path d="M182.631 64.646c-.488-6.031-3.608-11.68-8.386-15.605-4.29-3.447-9.848-5.17-15.992-5.84.78 3.542 2.438 7.563 5.168 11.297 5.753 7.85 13.847 11.967 19.21 10.148zm-80.543-3.351c-20.575-1.244-38.906-7.18-51.68-13.212-.39-.191-.78-.287-1.17-.478 3.023 5.457 11.994 11.297 23.5 14.552 12.773 3.734 24.572 3.16 29.35-.862z" fill="#FF4E4E"/><path d="M10.527 57.37c0-5.744 1.852-11.297 5.168-16.371C11.015 43.2 7.21 46.55 4.87 51.626-1.662 65.89 7.406 76.805 18.132 84.08c6.631 4.5 14.042 7.66 21.843 9.383-18.04-8.808-29.448-21.733-29.448-36.094z" fill="#F73535"/><path d="M54.601 20.894c-.097-.67-.488-1.245-.78-1.245-.293 0-.488.67-.39 1.34.097.67.487 1.245.78 1.245.293 0 .488-.67.39-1.34zm6.241-.958c-.098-.67-.488-1.244-.78-1.244-.293 0-.488.67-.39 1.34.097.67.487 1.245.78 1.245.292 0 .487-.575.39-1.34z" fill="#604748"/><path d="M54.893 16.968l-2.632.862c-.293.096-.488.479-.488.766l.195.574c.098.287.39.479.683.383l2.632-.862c.293-.095.488-.478.488-.765l-.195-.575c0-.287-.39-.479-.683-.383zm6.437 0l-2.048-.479c-.293-.095-.488.192-.488.48l-.098.574c0 .287.195.574.39.67l2.048.479c.293.095.488-.192.488-.48l.097-.574c.098-.287-.097-.574-.39-.67z" fill="#44262A"/><path d="M57.819 21.277s-.098.191-.098.383c.78.861 1.658 2.393 0 2.489 0 0 0 .095.098.095 2.925.288.585-2.489 0-2.967z" fill="#ED7656"/><path d="M59.964 26.064v.382c-.097 1.436-1.268 2.49-2.535 2.394-1.17-.096-2.048-1.053-2.145-2.394l4.68-.383z" fill="#492E36"/><path d="M59.574 26.35v.288c-.098 1.053-1.073 1.915-2.243 1.82-1.072-.097-1.755-.863-1.853-1.82l4.096-.287z" fill="#F9EBD7"/><path d="M94.872 43.967c.585.861 1.755 1.244 2.73.861 1.268-.478 2.243-1.436 2.633-2.01.488-.957-1.17-1.245-2.535-.287a12.132 12.132 0 01-2.828 1.436z" fill="#FFBB83"/><path d="M98.48 42.052c1.755-.67 5.266.574 4.973 1.053-.39.67-2.633-.862-3.705-.096-.975.67-1.268-.957-1.268-.957z" fill="#FFBB83"/><path d="M97.602 42.913c1.463-.67 4.876.48 4.583.958-.487.67-2.632-.862-3.608-.096-.78.575-.975-.861-.975-.861z" fill="#FFBB83"/><path d="M96.725 43.488c1.463-.479 4.778.957 4.388 1.436-.488.67-2.535-1.149-3.51-.479-.878.479-.878-.957-.878-.957zM84.049 17.926c.78-1.34 4.388-1.34 4.485-.67.098 1.053-2.73 0-3.12 1.244-.293 1.149-1.365-.574-1.365-.574z" fill="#FFBB83"/></svg>