<svg width="151" height="155" fill="none" xmlns="http://www.w3.org/2000/svg"><path d="M139.856 67.793c-2.31-6.802 4.249-11.246 4.526-14.783.37-5.17-3.325-2.086.554-10.793 4.711-10.43-5.727-5.714-1.57-14.24 4.157-8.525 2.586-18.501 2.586-18.501 3.511 12.425-2.678 22.039.185 25.123 2.864 3.083-2.124 10.43-.462 15.6 1.94 5.713-7.667 9.704-5.819 17.594z" fill="#E2D5D9"/><path d="M12.843 72.147h-2.587l9.607 35.552h2.587l-9.607-35.552zm13.024 0h-2.586l9.607 35.552h2.586l-9.606-35.552z" fill="#C9B695"/><path d="M21.988 49.02H4.252c-2.863 0-4.896 2.63-4.064 5.35l5.82 19.5c.646 2.267 2.77 3.9 5.265 3.9H29.84a3.143 3.143 0 003.048-3.99l-6.374-21.405c-.646-1.995-2.494-3.356-4.526-3.356z" fill="#F9C138"/><path d="M19.678 154.589h1.294l1.293-45.982h-3.603l1.017 45.982zm16.073 0h1.201l1.386-45.982h-3.603l1.016 45.982zm7.205 0h1.294l-.74-45.982h-3.602l3.048 45.982zm15.981 0h1.293l-.739-45.982H55.89l3.048 45.982z" fill="#C9B695"/><path d="M59.399 106.521H18.662c-.739 0-1.293.544-1.293 1.269v.907c0 .726.554 1.27 1.293 1.27H59.4c.739 0 1.293-.544 1.293-1.27v-.907c.092-.725-.554-1.269-1.293-1.269z" fill="#F9C138"/><path d="M6.746 49.654h-.924c-2.586 0-4.433 2.449-3.694 4.807L7.3 72.056c.647 2.086 2.495 3.446 4.712 3.446h2.863l4.619-11.155C11.55 62.17 8.132 54.642 6.746 49.654z" fill="#FFE14D"/><path d="M30.948 66.977c-20.969-.272-18.013-46.255 8.775-57.048C44.435-6.85 69.283.315 68.267 11.743c5.08 8.254-7.298 55.687-37.319 55.234z" fill="#682C35"/><path d="M84.617 60.991c1.478-.453 4.803 1.18 4.434 1.633-.555.634-2.494-1.27-3.51-.635-.924.544-.924-.998-.924-.998z" fill="#FFBB83"/><path d="M84.525 61.445c2.216.09 3.787 2.086 3.325 2.358-.647.453-1.2-1.27-2.679-.907-1.57.453-.647-1.451-.647-1.451z" fill="#FFBB83"/><path d="M56.997 64.438c-2.032-2.54-4.434-9.524-5.634-15.782-1.386-7.255-1.57-13.876-2.587-14.148-.831-.272-5.08 3.81-4.803 10.974.277 7.8 3.048 17.504 6.004 22.402 4.434 7.346 12.378 3.265 7.02-3.447z" fill="#4277B7"/><path d="M51.178 71.512c-1.386-1.996-.37-4.989 2.217-6.802 2.586-1.814 5.912-1.633 7.297.362 1.386 1.996.37 4.989-2.217 6.802-2.679 1.724-5.912 1.542-7.297-.362z" fill="#F9DEB7"/><path d="M57.46 64.165c6.835-.181 26.787-2.539 27.342-2.448l.554.907c-11.916 5.532-25.033 8.071-29.744 8.344-3.603.272-3.51-6.712 1.847-6.803z" fill="#FFBB83"/><path d="M40 49.382l5.081 8.797c-4.341 3.9-10.992 23.128 1.016 33.558l-22.631 9.432C15.06 87.656 40 49.382 40 49.382z" fill="#5B8ACE"/><path d="M40.185 48.838l5.081 8.797c-1.57 1.36-3.325 4.717-4.526 8.889-3.418 2.448-5.727 7.8-5.727 14.057 0 5.714 2.032 10.703 4.988 13.333l-16.258 6.802c-8.406-13.604 16.442-51.878 16.442-51.878z" fill="#4277B7"/><path d="M67.99 94.367c-.647-.544-23.925-4.716-30.853-2.993l.37 3.265 26.326 6.077c0 .091 4.803-5.805 4.157-6.349z" fill="#6D3E46"/><path d="M22.45 100.534c.277-4.353 7.39-7.437 14.687-9.25 2.125 2.357 10.069 4.08 19.583 4.08 4.25 0 8.221-.362 11.547-.997v13.605H30.024c-4.341 0-7.851-3.356-7.574-7.438z" fill="#6D3E46"/><path d="M59.584 107.427l15.795 47.162h.647s-5.542-58.408-7.39-59.406c-3.14-1.541-9.052 12.244-9.052 12.244z" fill="#6D3E46"/><path d="M56.813 107.337c-2.68 11.609-5.82 47.252-5.82 47.252h.647s18.567-48.069 17.55-57.954c-.83-7.982-11.454 6.711-12.377 10.702z" fill="#6D3E46"/><path d="M48.13 31.696c4.526 13.695 6.28 30.656 5.265 31.472-1.016.907-19.676-.181-18.844-3.265 2.678-9.523 12.47-31.562 13.578-28.207z" fill="#5B8ACE"/><path d="M33.72 60.81c1.847-6.53 7.943-20.316 11.916-27.3 1.755-2.993.923 0 .461 2.63-1.755 9.523 2.771 22.856 3.233 23.853.647 1.27 1.57 2.63 3.695 3.265-2.863.635-20.137.454-19.306-2.448z" fill="#4277B7"/><path d="M50.808 69.97c-1.755-2.812-3.417-10.52-3.972-17.504-.646-8.072.832-20.135-.092-20.498-.831-.272-6.466 8.98-6.836 16.78-.462 8.525 1.294 19.317 3.695 24.668 3.603 8.344 11.824 3.991 7.205-3.446z" fill="#5B8ACE"/><path d="M43.51 75.956c-.738-2.449 1.11-5.26 4.158-6.167s6.096.362 6.835 2.811c.74 2.449-1.108 5.26-4.157 6.168-3.048.997-6.096-.272-6.835-2.812z" fill="#F9DEB7"/><path d="M50.808 71.15c6.836.815 26.88 1.178 27.435 1.45l.462.998c-12.563 3.809-25.772 4.535-30.483 4.172-3.603-.454-2.679-7.256 2.586-6.62z" fill="#FFBB83"/><path d="M57.921 67.612c-1.663-.09-2.586-1.451-2.494-2.993-3.325 1.542-2.956 6.53.092 6.44 4.711-.273 17.92-2.903 29.744-8.345.093-.09-19.028 5.442-27.342 4.898zm9.514 6.711c-8.96 0-16.35-1.27-18.567-2.993-3.51.998-3.787 6.168-.646 6.35 4.71.362 17.92-.364 30.483-4.173-3.233.454-7.113.816-11.27.816z" fill="#FF9D66"/><path d="M81.014 62.26c.555 1.09 1.755 1.633 2.956 1.27 1.478-.362 2.771-1.27 3.233-1.904.74-.998-1.108-1.632-2.863-.725-1.663.906-3.418 1.178-3.418 1.178l.092.182z" fill="#FFBB83"/><path d="M85.079 60.719c1.57-.635 4.803.453 4.618.907-.37.544-2.401-.816-3.325-.09-.924.634-1.293-.817-1.293-.817zm-2.771 1.27c1.754-.182 4.988 2.358 4.526 2.811-.74.544-1.848-1.088-4.157-1.27-1.109-.18-.37-1.541-.37-1.541zM74.64 72.6c.555 1.089 1.756 1.633 2.957 1.27 1.478-.363 2.77-1.27 3.233-1.905.739-.997-1.109-1.632-2.864-.725-1.663.907-3.418 1.179-3.418 1.179l.093.181z" fill="#FFBB83"/><path d="M78.982 70.877c2.032-.454 5.912 1.451 5.45 1.904-.554.635-2.864-1.36-4.157-.725-1.108.725-1.293-1.18-1.293-1.18z" fill="#FFBB83"/><path d="M77.874 71.693c1.755-.544 5.357 1.27 4.988 1.723-.647.726-2.771-1.36-3.972-.635-1.016.545-1.016-1.088-1.016-1.088z" fill="#FFBB83"/><path d="M76.303 72.419c1.755-.544 5.358 1.27 4.988 1.723-.646.725-2.77-1.36-3.972-.635-1.108.544-1.016-1.088-1.016-1.088z" fill="#FFBB83"/><path d="M141.611 75.14h-7.02v2.086h7.02V75.14z" fill="#E5D3BA"/><path d="M142.812 70.06h-9.33c-.185 0-.369.182-.369.364v5.078c0 .545.461.998 1.016.998h8.128c.555 0 1.017-.453 1.017-.998v-5.078c-.093-.182-.278-.363-.462-.363z" fill="#E5D3BA"/><path d="M72.793 74.958h34.27l-.277 3.447h-34.27l.277-3.447z" fill="#F7EAD5"/><path d="M106.602 43.033h19.121l-12.655 35.009H93.946l12.656-35.009z" fill="#F7EAD5"/><path d="M104.292 85.479h-2.402v66.299h2.402V85.479z" fill="#C9B695"/><path d="M104.292 87.293h-2.402v29.657h2.402V87.293z" fill="#AD9573"/><path d="M124.614 153.954l-19.583-4.353h-3.88l-19.583 4.353h43.046z" fill="#C9B695"/><path d="M108.449 43.033h19.121l-12.563 35.009h-19.12l12.562-35.009z" fill="#E5D3BA"/><path d="M62.078 77.044h81.842c2.217 0 4.157 1.905 4.711 4.535l1.755 16.325c-39.72-8.706-64.014 1.18-94.313 0l1.201-15.6c.277-2.992 2.402-5.26 4.804-5.26z" fill="red"/><path d="M142.996 70.514v.998c.924 0 1.663.725 1.663 1.541 0 .817-.739 1.542-1.663 1.542v.998c1.571 0 2.772-1.179 2.772-2.54 0-1.36-1.294-2.539-2.772-2.539z" fill="#E5D3BA"/><path d="M142.073 77.407c0 6.53-.647 12.788-1.755 18.774 3.233.454 6.466 1.088 9.976 1.814l-1.755-16.325c-.462-2.63-2.402-4.535-4.711-4.535h-1.848c.093 0 .093.181.093.272zm-79.533 0v-.272h-.462c-2.494 0-4.527 2.267-4.804 5.26l-1.385 15.6c2.956.09 5.911.09 8.775.09-1.293-6.53-2.125-13.513-2.125-20.678zm76.022 18.411c-15.426-6.802-11.454-14.33-25.125-13.423-12.008.817-8.868 9.886-31.591 14.421 17.273-1.633 34.639-4.081 56.716-.998z" fill="#EB0101"/><path d="M142.165 70.151h-6.928c-.185 0-.369.182-.369.363v3.447c0 .544.462.997 1.016.997h5.819c.555 0 1.016-.453 1.016-.997v-3.447c-.092-.181-.277-.363-.554-.363z" fill="#F7EAD5"/><path d="M138.84 70.514h-2.956c-.185 0-.37.181-.37.363v.816c0 .544.462.998 1.016.998h1.755c.555 0 1.017-.454 1.017-.998v-.725c-.093-.273-.278-.454-.462-.454zm2.032 0h-.924c-.092 0-.185.09-.185.181v1.452c0 .272.278.544.555.544h.277c.277 0 .554-.272.554-.544v-1.36c0-.092-.092-.273-.277-.273z" fill="#FFF6E9"/><path d="M115.654 60.628c.554-2.176.277-3.9-.462-3.809-.831 0-1.847 1.814-2.402 3.99-.554 2.177-.277 3.9.462 3.81.739-.09 1.848-1.814 2.402-3.99z" fill="#EFDFCB"/><path d="M49.515 43.215c.277-1.542.554-2.993.646-4.535-.184-.726-.369-1.542-.646-2.268-.185-.725-.277-1.27-.462-1.632-.277-.998-.647-2.086-.924-3.084-.184-.635-.646-.363-1.293.363-.277-.09-1.2.998-2.217 2.72 2.217 6.35 4.896 8.436 4.896 8.436z" fill="#F9DEB7"/><path d="M48.591 38.861l-2.956-5.623 3.141-13.876 3.88 6.893L49.885 37.5l-1.294 1.36z" fill="#ED7656"/><path d="M54.318 37.138c7.02-2.54 12.101-19.318 7.02-21.676-5.265-2.54-12.285.09-13.393 6.348-2.125 11.7 6.373 15.328 6.373 15.328z" fill="#FFBB83"/><path d="M61.985 13.466c2.956 5.624-10.9 4.354-16.535 16.507 0 0-5.265-8.344 1.756-15.327 7.112-7.075 14.78-1.18 14.78-1.18z" fill="#682C35"/><path d="M55.427 24.35c.185-.726 0-1.36-.277-1.451-.277-.09-.74.453-.832 1.179-.184.725 0 1.36.278 1.36.277.091.646-.362.83-1.088zm6.004 1.27c.185-.726 0-1.36-.277-1.451-.37-.091-.74.453-.832 1.179-.184.725 0 1.36.278 1.36.277.09.646-.363.831-1.088z" fill="#604748"/><path d="M56.997 20.722h-2.679c-.37 0-.646.272-.646.544l-.093.635c0 .272.185.544.555.544l2.678.091c.37 0 .647-.272.647-.544l.092-.635c0-.363-.184-.635-.554-.635zm5.912 2.268l-1.663-1.18c-.184-.181-.462 0-.646.273l-.278.544c-.092.272-.092.635.093.725l1.663 1.089c.184.09.461 0 .646-.272l.277-.545c.185-.181.093-.544-.092-.634z" fill="#D34F4F"/><path d="M62.54 25.075l-3.51-.725-.647 2.993c-.185.725.37 1.451 1.2 1.632l.462.091c.832.181 1.57-.272 1.756-.998l.739-2.993zm-4.527-.725l-4.064-.907-.647 2.993c-.184.726.277 1.451 1.016 1.632l1.386.272c.739.182 1.478-.272 1.57-.997l.74-2.993z" fill="#FFF1DC"/><path d="M46.559 21.72l-.37.635L62.356 25.8l.092-.725L46.56 21.72z" fill="#FFF1DC"/><path d="M62.078 25.62l-2.494-.545-.462 2.177a1.027 1.027 0 00.831 1.18l.37.09c.554.09 1.2-.181 1.293-.726l.462-2.176zm-4.804-.998l-2.77-.544-.463 2.177c-.092.544.37 1.088 1.016 1.178l.37.091c.647.182 1.293-.181 1.386-.725l.461-2.177z" fill="#FFBB83"/><path d="M54.873 25.53c.277.09.739-.454.831-1.18v-.09l-1.108-.273v.09c-.185.817 0 1.452.277 1.452zm6.004 1.269c.277.09.739-.454.831-1.18v-.09l-1.108-.272v.09c-.185.817-.093 1.361.277 1.452z" fill="#604748"/><path d="M58.198 25.801s-.092.09-.185.272c.37 1.088.74 2.812-.831 2.358v.09c2.494 1.27 1.386-1.994 1.016-2.72z" fill="#ED7656"/><path d="M58.475 30.97c0 .091-.092.273-.092.364-.555 1.27-1.94 1.813-3.049 1.36-1.016-.454-1.478-1.633-1.108-2.812l4.25 1.089z" fill="#492E36"/><path d="M58.106 31.061c0 .091-.093.182-.093.273-.37.906-1.57 1.36-2.586.906a1.742 1.742 0 01-1.016-2.176l3.695.997z" fill="#F9EBD7"/><path d="M49.423 22.717c-.278-1.904-1.478-3.446-2.587-3.446-1.108 0-1.847 1.542-1.478 3.446.277 1.905 1.478 3.447 2.587 3.447 1.108.09 1.755-1.542 1.478-3.447z" fill="#FFBB83"/><path d="M48.591 22.717c-.184-1.179-.924-2.176-1.57-2.176-.74 0-1.109.997-.924 2.176.185 1.18.924 2.177 1.57 2.177.647 0 1.109-.998.924-2.177z" fill="#ED7656"/><path d="M48.499 23.896c-.093-.816-.647-1.45-1.109-1.45-.462 0-.739.634-.646 1.45.092.817.646 1.451 1.108 1.451.462.091.74-.634.647-1.45z" fill="#FFBB83"/></svg>