<svg width="542" height="583" fill="none" xmlns="http://www.w3.org/2000/svg"><g clip-path="url(#clip0_2_2733)"><path d="M365.829 253.634h94.142l-65.514 205.165h-94.416l65.788-205.165z" fill="#F9C138"/><path d="M382.345 583h-3.578l.55-124.201h11.286L382.345 583zm-48.997 0h-3.579l.551-124.201h11.286L333.348 583zm-22.297 0h-3.578l6.882-124.201h11.285L311.051 583zm-48.722 0h-3.854l6.882-124.201h11.286L262.329 583z" fill="#C9B695"/><path d="M266.458 453.016h123.044a4.935 4.935 0 014.955 4.957 4.935 4.935 0 01-4.955 4.957H266.733a4.935 4.935 0 01-4.954-4.957c0-3.029 1.926-4.957 4.679-4.957z" fill="#F9C138"/><path d="M170.39 356.63h-42.116v7.16h42.116v-7.16z" fill="#E2CFB3"/><path d="M256.273 275.665c-25.049 30.293-59.733 28.641-69.367 45.715-4.129 7.435-4.404 36.902 15.69 42.685 20.095 5.783 79.002-2.203 79.002-2.203-1.377-37.728-6.331-70.775-25.325-86.197z" fill="#E02F0D"/><path d="M311.051 222.515l57.531 53.976c37.987 17.901 95.242-8.812 95.242-8.812l-4.129-56.455c-39.638 23.683-95.517-3.58-148.644 11.291z" fill="red"/><path d="M399.687 266.026c-17.892 0-34.683-2.203-48.722-6.058l18.168 19.277c37.986 17.9 98.82-10.74 98.82-10.74l-3.303-14.32c-16.516 7.435-39.638 11.841-64.963 11.841z" fill="#E02F0D"/><path d="M441.528 274.563c14.314-2.203 26.701-19.001 28.077-35.8 1.376-14.871-6.331-25.336-17.342-25.061-11.561.551-24.774 12.668-29.178 29.192-4.955 19.002 3.303 34.148 18.443 31.669z" fill="#E02F0D"/><path d="M176.171 196.077c7.707 38.83 71.018 96.938 71.018 96.938l78.451-69.949c-44.042-10.19-79.827-4.682-97.719-42.686-5.506-11.291-55.329-2.203-51.75 15.697z" fill="red"/><path d="M236.44 220.103c5.375-17.283-.389-34.444-12.873-38.33-12.485-3.886-26.963 6.974-32.337 24.257-5.375 17.283.388 34.444 12.873 38.33 12.484 3.886 26.962-6.974 32.337-24.257z" fill="#E02F0D"/><path d="M248.015 276.216c-33.858-22.857-65.238-70.775-64.963-92.531-4.954 3.305-7.707 7.435-6.881 12.392 7.707 38.83 68.816 98.865 68.816 98.865s12.663-12.117 3.028-18.726z" fill="#E02F0D"/><path d="M219.794 225.242c15.446-10.81 21.611-28.667 13.768-39.883-7.843-11.216-26.723-11.545-42.169-.735-15.447 10.81-21.611 28.666-13.768 39.883 7.842 11.216 26.722 11.545 42.169.735zm14.733 135.519c10.736-11.567 8.533-30.844-4.679-42.686-13.213-11.842-32.757-12.117-43.217-.551-10.736 11.567-8.533 30.844 4.679 42.686 13.213 12.117 32.482 12.392 43.217.551z" fill="#F7EAD5"/><path d="M171.766 109.88c-3.578 28.366-11.286 86.748 6.331 103.272 17.618 16.523 58.632-10.741 53.953-25.061-6.882-21.205-30.83-75.732-30.83-75.732l-29.454-2.479z" fill="#FFBB83"/><path d="M180.85 146.783c-3.854-12.944-5.505-25.336-4.955-36.352l-4.129-.275c-3.578 28.365-11.286 86.748 6.331 103.271 12.938 12.117 38.813.551 49.548-12.117-16.791 1.377-37.161-22.031-46.795-54.527z" fill="#FF9D66"/><path d="M395.283 271.81c44.043 13.769 74.047 54.527 48.447 87.574-11.836 15.146-59.733-6.059-59.733-6.059s-14.864-89.777 11.286-81.515z" fill="#E02F0D"/><path d="M445.932 361.862c13.213-9.914 16.516-30.293 7.157-45.715-9.084-15.421-27.527-20.103-40.74-10.189-13.212 9.914-16.516 30.293-7.157 45.715 9.36 15.421 27.527 19.828 40.74 10.189zm17.892-86.472c14.865-2.203 22.572-19.828 18.168-37.453-3.854-15.697-16.241-26.988-28.353-26.713-12.662.275-22.847 12.943-21.746 30.293 1.377 19.828 16.241 36.076 31.931 33.873z" fill="#F7EAD5"/><path d="M239.757 278.97c37.436 57.556 34.133 98.038 28.077 114.011-5.78 15.973 104.326 53.701 104.326 53.701s51.751-10.189 35.51-126.679c-16.516-116.49-90.563-102.17-90.563-102.17l-77.35 61.137z" fill="red"/><path d="M407.67 320.003c-2.477-16.799-4.68-31.119-9.084-42.961-8.258-22.307 0 25.887.826 38.555 2.477 38.003-10.185 74.355-35.51 80.964-33.857 8.813-85.607-59.484-105.702-104.373-13.213-29.466-25.6-16.798-25.6-16.798 37.437 57.556 38.262 100.792 32.482 116.765-5.781 15.972 107.078 54.802 107.078 54.802s52.026-10.464 35.51-126.954z" fill="#E02F0D"/><path d="M385.924 265.751c23.398 12.393 46.245 34.699 12.387 35.25-33.583.551-12.387-35.25-12.387-35.25z" fill="red"/><path d="M354.543 381.415c-78.451-5.784-133.504 1.652-182.777 23.132l58.082 54.252 107.078-.275c18.718 0 36.06-8.813 47.346-23.684 10.46-14.045 6.882-33.873-7.707-43.236-7.708-5.508-16.241-9.914-22.022-10.189z" fill="#423035"/><path d="M300.041 403.171c33.307 0 62.21-4.682 77.074-11.567-.275 0-.275-.275-.55-.275-7.983-5.233-16.241-9.639-22.022-9.914-55.053-4.131-98.545-1.653-136.532 7.711 12.662 8.261 44.593 14.045 82.03 14.045z" fill="#564448"/><path d="M340.505 421.897c-6.331-12.943-49.548-15.697-55.329 4.957-11.836 42.686 3.303 108.779 24.224 153.668h2.752c4.405-15.422 44.318-125.303 28.353-158.625zm-108.456 18.176s-59.182-43.512-61.935-34.424c-11.285 38.279 25.6 129.709 76.8 174.872h3.854c-2.203-5.507-18.719-140.448-18.719-140.448z" fill="#423035"/><path d="M202.596 361.311c-14.038-12.392-19.268-38.279-.275-45.439 18.718-7.16 63.587 20.93 63.587 20.93l-7.708 24.509h-55.604z" fill="#FFBB83"/><path d="M240.583 357.731c-26.151-8.537-43.768-26.713-39.363-40.758 0-.275.275-.55.275-.826-18.443 7.436-13.213 32.772.826 45.164h53.952c-4.955-.551-10.185-1.927-15.69-3.58z" fill="#FF9D66"/><path d="M252.419 333.497c17.893-.826 41.291-.276 38.538 28.09h-37.712l-.826-28.09z" fill="#FFBB83"/><path d="M261.779 361.587h3.853c-4.129-11.842-6.331-14.596-7.707-14.871h-.275c1.101.55 2.477 3.58 4.129 14.871zm10.735 0h3.854c-4.129-11.842-6.331-14.596-7.708-14.871h-.275c1.376.55 2.753 3.58 4.129 14.871zm10.735 0h3.854c-4.129-11.842-6.331-14.596-7.707-14.871h-.276c1.377.55 2.478 3.58 4.129 14.871z" fill="#FF9D66"/><path d="M77.625 165.785h136.257c7.707 0 14.314 6.058 14.589 14.045l6.331 140.173c.275 8.262-6.331 15.422-14.589 15.422H83.956c-7.707 0-14.314-6.059-14.59-14.045l-6.33-140.174c-.55-8.261 6.33-15.421 14.589-15.421z" fill="#EADCBE"/><path d="M233.701 295.218l-5.23-115.113c-.275-7.711-6.882-14.045-14.589-14.045H77.625c-8.258 0-15.14 6.885-14.59 15.422l4.956 114.011H233.7v-.275z" fill="#6B4C47"/><path d="M68.266 165.785h136.257c7.708 0 14.314 6.058 14.589 14.044l6.331 140.174c.276 8.261-6.331 15.422-14.589 15.422H74.322c-7.707 0-14.314-6.059-14.59-14.045l-6.33-140.174c-.276-8.261 6.33-15.421 14.864-15.421z" fill="#E2CFB3"/><path d="M124.145 293.015H154.7l6.606 42.134h-30.83l-6.331-42.134z" fill="#C9B695"/><path d="M121.393 291.087h35.234l-10.185 73.529h-34.959l9.91-73.529z" fill="#E2CFB3"/><path d="M117.539 291.087h34.959l-9.91 73.529h-34.959l9.91-73.529z" fill="#EADCBE"/><path d="M365.279 369.298h-8.533V583h4.954l3.579-213.702zm-77.35 0h-8.258V583h4.679l3.579-213.702zm-171.216 0h-8.533V583h4.955l3.578-213.702zm-82.305 0H26.15V583h4.68l3.578-213.702z" fill="#C9B695"/><path d="M338.303 360.485H0v10.465h338.303v-10.465z" fill="#EADCBE"/><path d="M399.412 360.485H279.12v10.465h120.292v-10.465zm-55.879-22.857c-24.499 1.652-54.503-7.16-49.824-16.799 4.405-9.639 31.381-16.799 45.695-7.711 14.314 9.363 21.746 23.408 4.129 24.51z" fill="#F7EAD5"/><path d="M349.313 297.972c29.454.55 82.305.275 94.967 16.798 12.663 16.524 4.68 49.295-22.847 46.817-17.617-1.653-77.35-35.526-77.35-35.526l5.23-28.089z" fill="#FFBB83"/><path d="M444.28 314.77c-6.056 11.842-34.133 19.553-67.44 17.625-10.46-.55-20.37-2.203-28.903-4.406 13.488 7.436 58.632 31.945 73.496 33.322 27.252 2.479 35.234-30.017 22.847-46.541z" fill="#FF9D66"/><path d="M520.529 194.15c-11.561 23.959-34.959 73.804-55.604 74.906-20.645 1.101-31.655-44.613-21.195-52.6 15.139-11.841 54.503-39.931 54.503-39.931l22.296 17.625z" fill="#FFBB83"/><path d="M499.609 207.093c-22.572 24.234-48.722 36.627-58.081 27.814-.826-.826-1.377-1.652-1.927-2.753 1.101 15.972 10.735 37.728 25.049 36.902 20.645-1.102 44.318-50.947 55.604-74.906.275 0-15.14 7.16-20.645 12.943z" fill="#FF9D66"/><path opacity=".32" d="M336.651 218.384c-11.561-2.203-19.544-.551-19.544-.551l-3.578 2.754c-17.067-3.029-32.482-4.681-45.695-8.262 5.231 13.77 26.426 24.235 51.751 24.235 21.47 0 39.913-7.436 48.171-17.901-10.185-.826-20.645-1.101-31.105-.275z" fill="#9E932A"/><path d="M336.651 218.384c-11.561-2.203-19.544-.551-19.544-.551l-3.578 2.754a1579.04 1579.04 0 01-14.589-2.478c2.752 25.886 20.369 47.917 20.369 47.917s20.921-27.263 31.381-48.193c-4.405 0-9.084.276-14.039.551z" fill="#F7EAD5"/><path d="M317.107 217.833l-3.578 2.754a1579.04 1579.04 0 01-14.589-2.478c.55 5.783 1.926 11.566 3.853 16.798 5.23 1.102 10.736 1.653 16.792 1.653 7.982 0 15.414-1.102 22.296-2.754 3.303-5.233 6.607-10.74 9.084-15.697-4.68 0-9.634 0-14.314.55-11.286-2.478-19.544-.826-19.544-.826z" fill="#E2CFB3"/><path d="M319.31 170.466c9.634 29.742 25.049 47.367 25.049 47.367s-14.314 20.379-31.38 15.973c-17.067-4.406-14.039-40.758-14.039-40.758l20.37-22.582z" fill="#ED7656"/><path d="M292.884 221.138c-9.634-20.103-20.92-52.049-10.185-61.412 10.46-9.363 22.847-12.393 32.206 1.652 9.359 14.045 12.387 48.744 11.286 53.977-1.376 5.508-28.903 15.422-33.307 5.783z" fill="#FFBB83"/><path d="M254.346 583H227.37s15.69-7.436 20.095-7.436c4.404 0 6.881 7.436 6.881 7.436zm49.273 0h15.415s-6.056-7.711-8.808-7.711c-2.478 0-6.607 7.711-6.607 7.711z" fill="#EFDBC2"/><path d="M137.909 240.14c-.551-6.885-4.405-12.668-8.534-12.668-4.129 0-7.157 5.508-6.606 12.668.55 6.885 4.404 12.668 8.533 12.668 4.129-.276 7.157-5.783 6.607-12.668z" fill="#EADCBE"/><path d="M322.062 147.058s8.258-9.914-26.701-8.537c-17.066.826-28.628 11.842-28.903 19.277-.275 7.711 8.258 12.393 13.763 6.61 10.185-11.567 28.078-7.436 28.078-7.436-7.433 5.508 7.157 34.699 7.157 34.699l8.258-3.029 8.808 11.291c-1.101-19.553-1.927-38.004-10.46-52.875z" fill="#823A29"/><path d="M325.64 185.337c0-5.508-2.202-9.914-4.679-9.914-2.478 0-4.68 4.406-4.68 9.914s2.202 9.914 4.68 9.914c2.753 0 4.679-4.406 4.679-9.914z" fill="#FFBB83"/><path d="M324.539 185.613c0-3.58-1.376-6.334-3.303-6.334-1.651 0-3.303 2.754-3.303 6.334 0 3.58 1.376 6.334 3.303 6.334s3.303-3.03 3.303-6.334z" fill="#ED7656"/><path d="M321.236 194.425c1.368 0 2.478-1.726 2.478-3.855 0-2.13-1.11-3.856-2.478-3.856s-2.477 1.726-2.477 3.856c0 2.129 1.109 3.855 2.477 3.855zm172.868-13.769c1.651-11.291 3.853-16.248 6.331-19.828 2.477-3.305 1.927-15.698 4.679-19.553 1.101-1.377 6.607-.826 5.23 2.478-1.376 3.856-2.477 12.668 2.753 17.901 6.882 6.609-20.37 28.09-18.993 19.002z" fill="#FFBB83"/><path d="M510.62 162.755c4.954-7.986 10.46-19.828 11.561-25.06.826-3.58 5.23-1.928 5.23 1.928 0 3.304-3.854 22.306-12.662 26.162-8.809 3.855-6.056.275-4.129-3.03zm8.258 5.508c5.23-7.986 10.735-19.553 11.836-24.785.826-3.58 5.23-1.652 4.955 1.928 0 3.304-4.129 22.031-12.937 25.886-8.809 3.58-6.056.276-3.854-3.029zm3.303 11.566c6.055-7.16 12.937-18.175 14.864-23.132 1.101-3.305 5.23-1.102 4.955 2.478-.551 3.305-6.882 21.481-15.966 24.235-9.359 2.478-6.331-.551-3.853-3.581z" fill="#FFBB83"/><path d="M519.979 194.425c9.083-6.885 15.415-17.074 13.212-24.785-2.202-7.986-10.46-23.408-20.369-9.363-9.635 14.045-15.14 19.828-15.14 19.828l22.297 14.32z" fill="#FFBB83"/><path d="M500.985 83.168l-7.432 19.828c19.269 15.697 43.492 18.726 43.492 18.726l3.579-19.002s-22.022-3.855-39.639-19.552z" fill="#CCC848"/><path d="M515.85 111.533c3.028.551 5.78-1.928 6.331-5.508.55-3.58-1.101-6.885-4.129-7.435-3.028-.551-5.781 1.927-6.331 5.507-.551 3.58 1.376 6.885 4.129 7.436z" fill="#E5DE5C"/><path d="M524.658 150.638l-10.185-14.045c-19.268 6.059-31.931 21.205-31.931 21.205l11.286 10.74c0 .276 12.387-12.943 30.83-17.9z" fill="#BFB840"/><path d="M498.783 148.16c-1.651 1.652-1.376 4.957.826 6.884 2.202 1.928 5.23 2.203 6.882.551 1.651-1.652 1.376-4.957-.826-6.885-1.927-2.203-5.23-2.478-6.882-.55z" fill="#CCC848"/><path d="M534.568 144.58l-4.404-20.655c-24.774-2.754-46.521 7.987-46.521 7.987l7.157 17.9c.276 0 20.645-8.812 43.768-5.232z" fill="#CCC848"/><path d="M506.766 128.882c-2.752 1.102-3.854 4.682-2.477 8.262 1.376 3.305 4.679 5.232 7.432 3.856 2.753-1.102 3.854-4.682 2.477-8.262-1.376-3.029-4.679-4.957-7.432-3.856z" fill="#E5DE5C"/><path d="M347.111 327.438c-13.213-6.609-24.223-3.304-30.004-4.681-5.78-1.653-21.746-10.74-20.094-16.248 1.651-5.508 32.206-18.176 52.851-8.537 20.92 9.638 7.432 34.699-2.753 29.466z" fill="#FFBB83"/><path d="M319.309 316.147c-5.78 6.059-10.185 16.799-5.505 25.336 1.101 1.928 7.983 2.203 7.983-.275 0-2.203-1.377-13.77 6.331-19.553 7.707-5.783-5.506-9.088-8.809-5.508z" fill="#FFBB83"/><path d="M309.95 308.712c-7.157 4.406-14.589 14.596-12.662 24.785.551 2.478 6.606 4.957 7.432 2.478.551-2.478 2.753-15.146 11.561-18.451 9.084-3.304-2.202-11.291-6.331-8.812z" fill="#FFBB83"/><path d="M304.72 300.726c-8.258 3.304-18.718 12.667-20.645 24.509-.55 2.754 4.68 6.885 6.331 4.406 1.377-2.478 7.708-15.972 17.617-17.624 9.635-2.204 1.652-13.219-3.303-11.291zm-102.95-186.99c-4.954-18.176-15.414-35.25-22.847-36.627-7.432-1.377-16.791 9.914-7.157 33.598 9.91 23.683 30.004 3.029 30.004 3.029z" fill="#FFBB83"/><path d="M191.861 20.93l-46.245 31.394c26.976 41.308 67.165 61.687 67.165 61.687l47.071-36.076c-.276 0-47.621-21.48-67.991-57.005z" fill="#EADCBE"/><path d="M252.695 0l-55.329 6.334c4.68 49.02 30.555 85.921 30.555 85.921l58.356-9.913c-.275 0-31.931-41.309-33.582-82.342z" fill="#F4E8D3"/><path d="M168.738 101.068c-2.753-13.494-.275-22.031 5.505-24.51 5.781-2.754 18.719 1.928 22.297 1.653 3.579-.276.551 10.464-5.505 8.537-5.781-1.928-9.91-1.928-9.91-1.928l-.826 2.478s11.837 8.262 7.157 17.35c-4.404 9.363-16.791 5.783-18.718-3.58z" fill="#FFBB83"/><path d="M250.217 18.176l-41.014 6.61v3.028l41.29-6.334-.276-3.304zm-.275 9.088l-36.886 5.232v2.754l37.437-4.682-.551-3.305zm-5.505 10.464l-26.701 5.233v3.03l26.976-4.958-.275-3.305z" fill="#EADCBE"/><path d="M300.041 186.99c-.551-2.204-.276-4.407.825-4.407 1.102 0 2.203 1.653 3.028 3.856.551 2.203.276 4.406-.825 4.406-1.101.275-2.478-1.377-3.028-3.855z" fill="#604748"/><path d="M296.462 173.771l8.809 1.101c.825 0 1.376.827 1.376 1.377v2.479c0 .551-.551 1.101-1.376 1.101l-8.809-1.101c-.826 0-1.376-.826-1.376-1.377v-2.479c0-.55.55-1.101 1.376-1.101z" fill="#823A29"/><path d="M283.8 188.917c-.551-2.203-.275-4.406.826-4.406 1.101-.275 2.202 1.652 3.028 3.856.55 2.203.275 4.406-.826 4.406-1.101.275-2.478-1.377-3.028-3.856z" fill="#604748"/><path d="M278.845 179.829l5.505-3.58c.551-.275 1.102 0 1.377.551l.826 2.203c.275.551 0 1.377-.551 1.653l-5.505 3.58c-.551.275-1.101 0-1.377-.551l-.825-2.203c0-.551 0-1.377.55-1.653z" fill="#823A29"/><path d="M292.884 186.439c-.275 7.986.275 12.943 2.202 14.595 1.101 1.102 2.478.827 3.579 0v.276s-3.028 3.029-4.955 1.377c-1.927-1.653-1.652-7.16-.826-16.248zm13.488 18.175c1.927-2.203 1.651-4.13.55-5.507 1.927.55 3.579 3.304 1.101 6.058-2.477 2.754-7.982 4.131-9.909 3.58h-.275c2.752-.55 6.606-1.927 8.533-4.131zm1.651 5.784c0-.551-1.101-.551-2.202-.276-1.101.276-1.927.826-1.927 1.377s1.101.551 2.202.276c1.102-.276 1.927-.827 1.927-1.377z" fill="#EF7A62"/></g><defs><clipPath id="clip0_2_2733"><path fill="#fff" d="M0 0h542v583H0z"/></clipPath></defs></svg>