<svg xmlns="http://www.w3.org/2000/svg" viewBox="0 0 181 45.3"><path d="M44.2 40.9l-4.8-9.6-3-6.1L24.9 1.9c-1.1-2.2-4.3-2.2-5.4 0L8 25.3l-2.3 4.6-5.5 11c-1 2 .5 4.3 2.7 4.3H3c1.1 0 2.2-.7 2.7-1.7L11 33c.5-1 1.5-1.7 2.7-1.7h17.1c1.1 0 2.2.6 2.7 1.7l5.2 10.6c.5 1 1.6 1.7 2.7 1.7 2.3 0 3.8-2.4 2.8-4.4zM19.6 25.3c-2.2 0-3.7-2.3-2.7-4.3l2.6-5.4c1.1-2.2 4.3-2.2 5.4 0l2.6 5.4c1 2-.5 4.3-2.7 4.3h-5.2zM101 4.4L81.8 43.6c-1.1 2.2-4.3 2.2-5.4 0l-3.4-7c-1.1-2.2-4.3-2.2-5.4 0l-3.4 7c-1.1 2.2-4.3 2.2-5.4 0L39.4 4.4c-1-2 .5-4.3 2.7-4.3h.1c1.1 0 2.2.7 2.7 1.7L58.8 30c1.1 2.2 4.3 2.2 5.4 0l2.8-5.6.7-1.4c1.1-2.2 4.3-2.2 5.4 0l.7 1.4 2.7 5.6c1.1 2.2 4.3 2.2 5.4 0L95.6 1.7c.5-1 1.5-1.7 2.7-1.7h.1c2.2 0 3.6 2.4 2.6 4.4zm42.4 36.3L124.3 1.8c-1.2-2.4-4.6-2.4-5.7 0L99.4 40.7c-1 2.1.5 4.6 2.9 4.6h38.3c2.3 0 3.8-2.5 2.8-4.6zm36.9-35.5c-4.7 5.2-10.6 11.7-14.2 15.6-.5.6-.8 1.3-.8 2v19.4c0 1.7-1.3 3-3 3s-3-1.3-3-3V22.8c0-.7-.3-1.5-.8-2-4-4.3-9.8-10.7-14.3-15.7-1.8-1.9-.4-5 2.2-5 .8 0 1.6.4 2.2 1L160 13.7c1.2 1.3 3.2 1.3 4.4 0l11.4-12.5c.6-.6 1.4-1 2.2-1 2.6 0 4 3.1 2.3 5z" fill="red"/><path d="M111 31.2c.1-.4.1-.7.2-1.1.3-1.5 1.1-2.8 2.3-3.8 1-.8 2.2-1.4 3.5-1.5.4 0 .7-.1 1.1-.1h5.9l-.5-.5c-.4-.4-.6-.8-.5-1.4.2-1.1 1.6-1.6 2.4-.9 1.2 1.1 2.3 2.2 3.4 3.4.5.6.5 1.4-.1 2-1 1.1-2.1 2.1-3.1 3.1-.5.5-1.2.6-1.8.3-.5-.3-.8-.9-.7-1.6.1-.3.2-.6.5-.8.2-.2.4-.4.7-.6h-6.2c-1.5 0-2.7.7-3.5 2-.9 1.5-.6 3.7.7 4.9.8.7 1.8 1.1 2.9 1.1h8.5c.5 0 1 .2 1.3.6.3.5.4 1 .2 1.5s-.6.8-1.2.9h-8.8c-1.7 0-3.2-.5-4.6-1.6-1.2-1-2-2.3-2.4-3.8-.1-.3-.1-.6-.2-.9v-1.2z" fill="#fff"/></svg>