<svg width="23" height="19" fill="none" xmlns="http://www.w3.org/2000/svg"><g clip-path="url(#clip0_2_2830)"><path d="M23 1.211c-.138.636-.294 1.39-.45 2.135l-3.11 14.587c-.224 1.042-1.097 1.38-1.97.754-1.659-1.195-3.326-2.38-4.976-3.592-.25-.178-.372-.152-.57.06-.778.796-1.573 1.583-2.368 2.371-.674.67-1.434.491-1.728-.407-.613-1.914-1.236-3.828-1.84-5.743-.07-.211-.173-.313-.38-.372a449.674 449.674 0 01-4.83-1.398c-.104-.034-.216-.068-.32-.11-.294-.127-.45-.348-.458-.652a.69.69 0 01.415-.687c.242-.11.492-.203.734-.296C7.863 5.286 14.576 2.728 21.29.16c.277-.11.562-.203.864-.136.519.11.864.551.847 1.186zM18.732 3.38c-.121 0-.208.068-.303.127-3.75 2.27-7.49 4.549-11.232 6.827-.406.246-.466.407-.328.856.475 1.508.95 3.007 1.426 4.515.034.101.025.262.164.254.138-.008.112-.17.13-.271.112-.94.224-1.872.319-2.812.026-.314.155-.542.389-.746 3.145-2.719 6.281-5.438 9.418-8.166.077-.067.164-.127.215-.211.104-.17-.008-.373-.198-.373z" fill="#000"/></g><defs><clipPath id="clip0_2_2830"><path fill="#fff" d="M0 0h23v19H0z"/></clipPath></defs></svg>