<svg width="27" height="18" fill="none" xmlns="http://www.w3.org/2000/svg"><g clip-path="url(#clip0_2_2832)"><path d="M10.883 11.501v-.206c0-3.7 0-7.401-.003-11.102 0-.143.027-.193.189-.193 1.333.007 2.667.007 4.001 0 .142 0 .176.037.172.173-.003 2.061-.003 4.123-.003 6.185 0 .222 0 .222.233.182.942-.163 1.77-.578 2.512-1.147 1.76-1.346 2.928-3.099 3.6-5.18.05-.156.104-.213.283-.213 1.317.01 2.634.007 3.95.007h.21c-.777 3.6-2.83 6.287-5.899 8.282.004.024.034.03.058.044 3.001 1.52 5.108 3.84 6.371 6.912.166.406.3.822.43 1.24.03.1.016.134-.102.134a859.575 859.575 0 00-4.542 0c-.142 0-.148-.09-.179-.173a9.029 9.029 0 00-1.833-3.146c-1.273-1.413-2.85-2.294-4.758-2.58-.34-.05-.34-.05-.34.293 0 1.805-.004 3.61.002 5.42 0 .156-.043.189-.195.189-1.705.007-3.39-.153-5.035-.632-3.316-.967-5.821-2.946-7.54-5.895C1.452 8.353.831 6.474.45 4.509A27.011 27.011 0 010 .183C-.003.03.037 0 .183.003c1.424.007 2.846.007 4.271 0 .142 0 .179.037.182.173a19.52 19.52 0 00.514 4.196c.398 1.66 1.023 3.22 2.08 4.586.813 1.05 1.803 1.882 3.069 2.364.145.056.297.1.446.146.037.014.08.02.138.033z" fill="#000"/></g><defs><clipPath id="clip0_2_2832"><path fill="#fff" d="M0 0h27v18H0z"/></clipPath></defs></svg>