<svg width="269" height="12" fill="none" xmlns="http://www.w3.org/2000/svg"><mask id="a" style="mask-type:alpha" maskUnits="userSpaceOnUse" x="0" y="0" width="269" height="12"><path fill="#C4C4C4" d="M0 0h269v12H0z"/></mask><g mask="url(#a)"><path d="M44.468-2.538l.821-.158-1.598-.227.767-.166c.768.002 1.763.25 2.304.118.067-.128-.77-.169-.983-.27a2.72 2.72 0 01-.46-.311c.417.001.877.026 1.352.072.637.077 1.263.114 1.807.108 1.114.02 2.189 0 3.4.004l-.404-.308 1.56.072c.166.024.363-.014.525.015 1.352.246 1.924.112 2.573 0a3.57 3.57 0 01.476-.063c1.803.059 3.43.403 5.053.58.306.045.599.103.859.17.565.13 1.193.235 1.827.307.635.072 1.254.109 1.803.106a33.783 33.783 0 013.983.249c.415.055.83.09 1.22.106.39.015.744.009 1.041-.018l.944.176c.41-.072.928-.11 1.526-.115.597-.005 1.26.025 1.948.088.734.068 1.479.114 2.24.187 1.572.138 3.103.222 4.543.25 2.146.084 4.242.148 6.406.252 1.354.05 2.673.078 3.95.083 1.529.02 3.183.115 4.882.281-.08.156-.826.11-1.326.104-1.613-.025-3.264-.093-4.924-.143a65.727 65.727 0 00-2.177-.022 69.107 69.107 0 01-3.692-.124 136.07 136.07 0 00-5.852-.12 4.694 4.694 0 00-.402.033c-.025.013-.03.03-.014.049a.262.262 0 00.103.058c.053.02.12.038.195.053.076.015.158.026.237.033.744.106 1.543.219 2.245.235a.887.887 0 01.165.023c1.57.223 2.862.186 4.085.222 2.031.098 3.99.144 5.844.136.28 0 .584.014.898.038 1.943.1 3.76.11 5.365.033.661-.02 1.275-.064 1.985-.065a7.127 7.127 0 001.12-.082c.301-.052.516-.126.633-.218.3.048.604.091.909.129.183.021.357.027.489.016.133-.012.212-.039.223-.076.054-.106-.362-.16-.723-.205a8.61 8.61 0 01.73-.04 75.903 75.903 0 014.807.086c1.31.096 2.356.018 3.735.154.166.023.302-.011.454-.02a9.644 9.644 0 011.44-.028c.549.025 1.136.083 1.71.17.715-.238 2.259.035 3.4.06.351.12-.052.1-.069.133-.017.033 0 0-.138-.02-1.139.172-2.699.21-4.462.108-.326 0-.636.008-.929.023-.442.021-.942.02-1.475-.006a14.53 14.53 0 00-1.581.026 3.22 3.22 0 00-.654.053c-.163.035-.259.087-.279.15.178.047.375.091.583.13 1.089.15 2.175.213 3.044.175 1.513-.066 3.314-.002 4.922-.024 1.088-.01 2.245.017 3.45.077l-.035.067c.143.027.293.048.441.063l.015-.028a1.513 1.513 0 00-.259-.073l-.358-.05c.244-.014.471-.053.725-.029a14.71 14.71 0 001.502.055 6.871 6.871 0 001.154-.102 13.407 13.407 0 011.975-.102 46.089 46.089 0 001.684-.054s.035-.066.29-.102a10.1 10.1 0 00-.744-.105c-1.09-.066-2.183-.125-3.255-.17-.394-.004-.765.003-1.105.023-.943.022-2.002-.01-3.115-.096l-.331-.047c.313-.147 1.39 0 1.826-.1.265.003.732.015.716-.011-.037-.035-.041-.067-.013-.095.028-.028.088-.05.175-.065a1.96 1.96 0 01.328-.022c.129 0 .273.009.419.024a31.57 31.57 0 003.395.07c.384 0 .815.026 1.196.032.233.008.446.004.627-.012.921-.117 2.161-.125 3.532-.024.663.036 1.283.04 1.826.014.387-.005.551.078.827.117l1.17.083-1.503.103c.322.237.577.315 1.102.33.765.022 1.511.032 2.232.03.533-.002.974-.053 1.696.037.127.015.25.02.347.014.846-.08 1.864-.1 2.986-.054.581-.15 1.57-.005 2.485.113.295-.113-.24-.165-.559-.234.765.007 1.536.003 2.326.02.238-.007.509.004.793.03.285.025.574.066.845.118a2.6 2.6 0 00.446.071c.153.012.289.01.379-.007.41-.05 1.067-.004 1.406-.088.12-.019.292-.022.485-.007.194.014.395.044.569.085-.191.013-.36.033-.505.06-.518.088-.328.234.331.447 1.012-.012 2.045-.008 2.983-.048a12.569 12.569 0 011.849.032c.686.057 1.391.158 2.035.292.233.051.498.087.744.1.245.012.453.001.581-.032.079-.037.104-.085.072-.139l-.662-.093.032-.062.951-.008c.503 0 1.027.014 1.503.01a21.962 21.962 0 012.342.046c.781.06 1.549.105 2.296.135.724.03 1.248-.068 1.936-.084.521-.012 1.093 0 1.696.038 1.041.065 1.997.065 2.78 0 .913.35 1.357.408 2.204.313l.399-.027.109.075.304-.017c.569-.014 1.139-.029 1.733-.034.826.032 1.719.12 2.59.254.165.023.39.103.535.165.145.063.462.251.694.374-.253.09-.534.175-.735.277-.02.018-.018.039.006.062a.404.404 0 00.132.069c.063.023.142.044.23.062.089.019.184.033.279.043.185.02.368.034.541.04.851.011 1.667.003 2.438-.024a5.57 5.57 0 011.095-.01 8.93 8.93 0 011.269.185 29.632 29.632 0 013.437.045c1.327-.05 2.931.052 4.171-.059-.029.056.099.152.277.207.283.084.602.161.946.23l2.623.133c.098.069.22.138.366.207.099.055.273.109.483.15.211.04.442.066.645.07.522.02.959-.025 1.582.087-.959.106-2.251.092-3.647-.04a48.5 48.5 0 00-3.739-.148c-.384 0-.889.005-1.01.066-.266.171-.961.144-1.773.112a12.36 12.36 0 00-1.7.012c-.479.042-.841.12-1.057.23-.055.106.076.196.636.258l2.327.246c.343-.032.668-.07.975-.112a12.914 12.914 0 011.863-.046c.709.027 1.471.096 2.226.202.386.055.771.11 1.051.083.245-.03.471-.065.676-.107.042-.027.058-.06.049-.094.149.016.297.037.441.062a7.882 7.882 0 002.847.213c.219-.022.386-.058.607-.087.222-.028.3-.065.502-.054 1.606.097 2.068-.226 3.422-.213.066-.013.107-.031.119-.055.012-.023-.005-.05-.05-.078a3.1 3.1 0 00-.661-.094c-.623-.042-1.173-.029-1.557.036-.271.026-.558.047-.86.063l-1.356-.467a53.55 53.55 0 003.698-.001c.249-.025.671.017 1.021.025l2.58.044c.531.004.983-.07 1.723.101 0 0 .488.028.619.004.13-.023.708-.168 1.052-.262.4.026.954.1 1.203.075a7.71 7.71 0 001.124-.229l1.559.132c-.002.117-.059.227-.17.328-.122.098-.117.215.012.342.13.128.381.261.733.39l1.539.685c.251.046.519.077.766.088.248.012.465.004.62-.023.662-.08 1.403-.141 2.065-.22.855.12.635.317 1.256.488l2.011.286c.307.264.62.518-.313.606-.186.016-.061.117-.23.159.725.198 1.523.258 2.258.38.29.088.532.181.715.275.202.14.61.285 1.136.401.527.116 1.129.195 1.678.219.921.074 1.864.186 2.787.33.316.05.639.086.95.107.311.02.602.024.852.011.893-.022 1.649-.1 2.218-.228.563-.11 1.322-.162 2.209-.153 1.515.215 1.82.54 2.738.825l-1.584.032c-.058.11.047.251-.602.249-.65-.003-.32.104-.11.211.074.054.219.11.41.157.191.048.416.085.638.105l1.348.138c.478.052.941.074 1.337.064.397-.01.712-.052.911-.122.228-.066.543-.11.925-.13.488-.055.889-.135 1.188-.238l1.903.15c.082-.104.343-.177.741-.206.398-.03.908-.014 1.443.044l1.283.093c1.427.1 1.739.068 2.157-.226l-1.711-.523c.249-.138.489-.26.729-.38-.426-.173-.994-.336-1.648-.473a73.105 73.105 0 00-1.878-.428c-.696-.14-1.432-.263-2.296-.421-.151-.052-.37-.142-.65-.23a28.136 28.136 0 00-.877-.25c.058-.11.11-.211-.001-.34.532.041 1.082.113 1.6.21a10.2 10.2 0 011.368.342c.063.023.141.044.229.063a3 3 0 00.277.045c.935.079 1.382.244 1.839.446.308.103.705.195 1.136.263.827.117 1.636.268 2.426.398.242.043.494.079.744.105.826.085 1.658.203 2.452.348.26.037.508.086.726.143.218.057.397.12.525.184-.197.07-.303.159-.312.26-.035.067.545.203.82.302.274.099-.264.052-.446.062-.75.02-.889.06-.44.278.15.069.249.138.292.202.043.065.029.124-.043.174-.106.206-.43.375-.653.576.346.133.923.274.986.439.03.036.094.075.187.113.093.037.213.074.35.106.363.07.693.153.964.243s.477.185.601.278c.04.038.138.079.274.113.135.035.299.061.457.074a2 2 0 00.473-.006c.114-.019.165-.054.142-.098a.432.432 0 00-.075-.255c.032-.061.064-.123-.061-.224a15 15 0 011.714.214 9.493 9.493 0 011.443.372c.428.144.823.295 1.298.464-.098.19-.098.19.912.524l5.357.163 1.098.222c1.024.193 1.268.18 1.911.08l.433-.094c.909.129 1.956.277 2.525.036.184.157.305.21.263.234-.272.233-.743.43-1.397.584-.166.036-.283.091-.477.123-.626.182-.771.463-.406.785.181.143.444.289.781.433-.493.201-1.146.368-1.942.495-.675.099-1.231.23-1.652.393-.378.163-.944.285-1.665.36-.366.033-.633.096-.775.183-.042.238.055.492.289.758.044.08.169.168.365.255.196.087.458.17.765.246 0 0 .149.057.22.09.059.288-.163.542-.651.744-.08.058-.244.1-.474.12a5.443 5.443 0 01-.83 0c-.663-.034-1.281-.039-1.922-.058-.69-.027-1.299-.006-1.761.062-.461.068-.76.18-.864.324a.236.236 0 01-.06.117.096.096 0 00-.032.061l1.471.472-1.664.187c-.098.19.701.303 1.102.443l-.248.079c-.319.044-.748-.04-1.137-.09l-.385-.055-.046.09c-.24.12-1.116-.016-1.458.073-.342.089-.098.19.414.286a11.464 11.464 0 002.192.221c.196-.01.358-.03.477-.063a29.272 29.272 0 012.284-.357c.636-.089 1.433-.127 2.335-.11.264-.007.583.014.901.059.317.045.613.111.834.187l.467.012s.255.078.219.091c-.177.231.029.514.589.806l-.487.027c-.696-.027-.255.149-.359.235-.494-.016-1.136-.09-1.371.02l-.35-.007.137.02.167-.037.654.165c-.31.027-.534.061-.808.076a1.375 1.375 0 00-.354.067c-.082.032-.125.071-.125.116.001.069-.081.127-.237.169a2.852 2.852 0 01-.655.069c-.326.001-.513.076-.704.103l.831.452s-.414-.059-.189.021l.029-.055.503.113c.363.1.617.123.831.052.214-.071.165.023.268-.004-.037.073-.27.123-.47.166a8.62 8.62 0 01-.778.075c.516.318.54.328-.213.412-.753.084-.494.21-1.124.229-.63.018.086.233.508.275.313.027.632.07.935.126.303.055.584.122.822.195l-.127.244a8.613 8.613 0 01-.551-.078c-.611-.134-1.166-.26-1.709-.183l.258.186-1.896-.108c.049.14.338.299.806.443a.512.512 0 00-.129.25c-.032.062-.219.023-.341.03-.434.01-.79.052-1.038.12-.247.07-.377.164-.379.276-.049.095.618.29 1.036.284 1.042.02 2.169.092 3.32.215.701.016.8-.233 1.954-.063.023.115-.124.208-.421.265-.296.057-.725.075-1.221.051.282.255 1.845.322 1.914.588a10.955 10.955 0 01-1.207-.128 8.321 8.321 0 01-1.084-.245 1.773 1.773 0 00-.244-.062 2.697 2.697 0 00-.288-.039 1.989 1.989 0 00-.262-.005.575.575 0 00-.172.029c.216.096.455.208.726.312.271.104.337.15.532.171 1.461.207 2.155.58 3.418.826.331.047.372.196.085.179a4.39 4.39 0 00-.714.006c-.194.021-.326.06-.383.113a4.87 4.87 0 01-.785.145c1.296.383 2.841.722 4.49.984.312.052.638.083.929.09.921 0 1.897.03 2.911.09.359.017.691.015.978-.004.94-.046 1.687.054 2.369.336l1.13.447c-.038.072-.227.153-.373.264l.882.238 6.731-.55 1.352.533 1.937-.03c.149.016.298.037.441.063.392.157.699.308 1.124.458.425.15 1.184.168 1.714.345.53.176 1.06.18 1.716.285.061.137-.002.26-.187.362-.061.117-.394.189-.451.3.006.112-.118.208-.36.278-.243.07-.597.111-1.03.122-1.213.24-2.675.41-4.343.506a1.717 1.717 0 00-.357.048c-.089.024-.144.056-.16.094.002.109-.109.203-.326.276-.216.072-.533.121-.926.143a.643.643 0 00-.228.04c-.149.014-.258.04-.315.076-.058.036-.063.082-.014.131.049.05.149.102.292.152.142.05.322.096.522.133.289.061.585.119.886.174-.017.034-.316.039-.272.069.118.096.145.186.08.263-.066.076-.222.138-.457.18l1.609.777c.976.108 1.934.29 2.692.513.001.037-.043.067-.127.09a1.534 1.534 0 01-.351.034c-.393.016-.764.047-1.187.064a3.146 3.146 0 00-.633.085c-.159.043-.259.1-.295.166l.945.289c-.303.07-.527.104-.727.148.113.09.308.184.569.274.261.09.582.174.937.244.095.014.193.025.286.031.093.006.181.008.258.004.731-.099 1.587.076 2.418.242.831.166 1.282.265 1.896.394l1.174.018c.297.06.562.132.774.21.212.076.365.155.447.232-.064.122-.621.055-.952.068-.788.076-1.823.06-2.934-.047-.276-.039-.558-.007-.826-.003-.578.015-1.134.04-1.665.074-.35.032-.676.071-.978.118-.081.156 1.188.276.468.353.248.035.341.084.468.067a17.93 17.93 0 002.321.144c1.343-.022 2.867.05 4.448.207a41.44 41.44 0 004.776.2c.546-.002 1.155.032 1.783.098.741.092 1.477.15 2.16.169a7.365 7.365 0 011.481.168c-.021.04-.242.067-.193.086.707.292.994.595 2.082.893.744.106 1.598.227 2.084.087.487-.14.312-.26-.656-.619a4.587 4.587 0 011.378.196l.837.268.755.256-.173.334c-.086.112.009.249.271.39.159.078.297.156.413.233.472.307.608.597.394.838-.409.346-.98.665-1.705.952-.766.28-1.185.632-1.815.937a7.242 7.242 0 01-1.168.372c-.865.241-1.812.471-2.679.718-.867.248-1.846.425-2.809.629-1.434.242-2.984.45-4.642.625-1.025.153-2.078.302-3.027.478-1.12.199-2.437.341-3.916.424-1.306.1-2.474.246-3.48.438a.927.927 0 00-.247.078c-.181.196-.689.333-1.445.392.046.058.105.116.176.175.105.07.127.135.063.188-.064.053-.212.09-.423.107-.605.048-1.108.13-1.486.243-.139.028-.225.07-.251.12-.026.05.009.108.101.17.083.062.089.12.018.165-.071.046-.216.076-.415.088a30.23 30.23 0 01-1.642.144c-1.236.079-2.674.078-4.227-.003-.166-.024-.332.012-.525-.015-1.098-.09-2.118-.105-2.937-.04-.959.025-1.962.02-2.973.031-1.462-.008-2.81.04-4.007.142-1.369-.098-2.138.073-3.293.077-1.066.017-2.077.06-3.023.126-1.524.088-3.043.165-4.545.269a47.53 47.53 0 00-3.872.28c-.446.062-1.254-.034-1.558.096-.303.13-.917.114-1.412.158l-1.564.106c-.268.026-.564.042-.882.048-1.454.009-2.46.182-3.809.218l-.138-.02c-2.396.258-5.137.4-8.144.421-1.756.08-3.677.076-5.54.134-.445.116-1.495-.027-2.052.079-.558.106-1.468.036-2.187.054-.719.017-1.421.06-2.19.06-.667 0-1.23.047-1.638.137-.932.148-2.068.236-3.357.258-1.706.039-3.319.126-5.054.107.025.108-.081.2-.308.267-.227.066-.566.105-.982.111-1.855.042-3.537.15-5.417.181h-.503l-5.621.063c-1.515.011-2.974.031-4.519.045-.579-.082-.593.06-.993.032-.112-.07-.244-.1-.441-.062l-.043.083-6.416.11c-2.512.082-5.154.106-7.904.074-.652.008-1.261.035-1.817.082-.515.017-1.053.025-1.609.023a79.372 79.372 0 00-2.202-.032c-1.879.032-3.852.014-5.91-.009-2.058-.023-3.617.018-5.449.015a160.16 160.16 0 01-3.76-.05c-.613-.015-1.369-.098-2.004-.129-.635-.03-.842-.03-.926.018-.276.134-.971.047-1.526.034-1.082-.022-1.236-.068-1.53-.414l1.328-.11a7.684 7.684 0 011.189-.018c.454.023.938.076 1.403.153a6.536 6.536 0 001.101.102c1.34-.018 2.662-.058 3.95-.09l.189-.021.011-.309a7.608 7.608 0 00-.523-.074l-6.462-.2c-1.483-.05-3.022-.16-4.478-.206a287.759 287.759 0 01-3.368-.12 45.553 45.553 0 01-1.454-.105.167.167 0 00.048-.094c.026-.05.061-.117-.148-.17a4.74 4.74 0 00-.853-.181 11.231 11.231 0 00-.864-.045 25.284 25.284 0 01-4.171-.455l-.477.177c-2.048-.1-4.127-.197-6.266-.292a13.75 13.75 0 01-1.315-.145c-.469-.066-.9-.205-1.393-.28a29.854 29.854 0 00-1.442-.128c.127-.045.296-.082.499-.108.201-.01.347-.038.417-.081.071-.044.062-.1-.025-.162-.152-.105-.219-.204.113-.217.306-.024.526-.076.632-.15.106-.074.095-.166-.033-.267a.588.588 0 01-.118-.172l-.137-.02c-.455-.207-1.362-.282-2.014-.452a6.298 6.298 0 00-.904-.08c-.721-.037-1.422-.053-2.168-.1-.355-.02-.728-.06-1.094-.113-.524-.074-.579-.082-.883-.352.472.005.846-.036 1.059-.114.214-.079.253-.19.111-.317-.39-.276-.801-.568-2.563-.764.575-.01 1.128-.029 1.657-.058a.884.884 0 00.33-.058c.061-.031.065-.073.012-.119a.929.929 0 00-.311-.138 3.682 3.682 0 00-.523-.107c-.93-.156-1.9-.26-2.801-.302-.76-.018-1.445-.008-2.332-.008l-1.047-.149c.017-.033-.137-.079-.098-.097.266-.171.56-.339.862-.523a7.03 7.03 0 01-1.206-.346c-.306-.127-.487-.255-.523-.37-.026-.036-.019-.068.02-.094a.528.528 0 01.207-.06c.276-.022.489-.065.622-.125.134-.06.184-.135.148-.22l-.814-.312a142.163 142.163 0 00-7.178-.475l-2.093-.07c-.252-.084-.174-.12.064-.123.237-.002.905.021 1.372.034a6.3 6.3 0 001.039-.032c.279-.036.467-.098.549-.179l-.703-.356c.035-.067.083-.162.465-.155.26-.008.452-.042.544-.096.093-.054.08-.125-.035-.202-.018-.056.009-.107.077-.15.564-.004 1.125-.002 1.637-.02.238-.005.439-.026.589-.06.151-.034.247-.081.282-.138.019-.055-.026-.118-.131-.184a2.042 2.042 0 00-.472-.194c-.801-.077-1.535-.078-2.039-.003-.179.059-.468.09-.828.092a8.76 8.76 0 01-1.186-.085 8.126 8.126 0 00-1.332-.081c-.386.013-.661.067-.775.152-.486-.033-.917-.058-1.341-.095a9.877 9.877 0 00-1.37-.039 31.16 31.16 0 01-2.028-.025c-2.06-.077-4.122-.149-6.117-.181-.527-.01-.984.016-1.506-.005-.521-.02-.934.035-1.587-.076a3.597 3.597 0 00-.365-.032 2.18 2.18 0 00-.303.009c-1.146.087-2.49.1-3.952.036-2.003-.015-4.08-.06-6.086-.07-.589.01-1.145.032-1.662.07a32.09 32.09 0 01-1.236.045c-.33.007-.644-.014-.589.108.056.121-.437.045-.721.023a78.224 78.224 0 01-2.982-.238 31.231 31.231 0 00-2.862-.185c-.646-.009-1.313.022-2.144-.144.031-.06.063-.122.244-.186a20.737 20.737 0 00-2.256-.441 23.143 23.143 0 00-2.373-.216l-1.04-.332a8.938 8.938 0 00-.769-.084 6.404 6.404 0 00-.691-.01 3.3 3.3 0 01-.544-.035 2.803 2.803 0 01-.503-.114 5.688 5.688 0 00-1.433-.203 19.72 19.72 0 01-2.21-.242c-.191-.072-.31-.146-.344-.213-.033-.068.02-.125.155-.166.216-.072.338-.164.357-.27.02-.106-.064-.225-.245-.347-.093-.076-.124-.147-.091-.21s.128-.117.28-.158c.571-.187.419-.293-.514-.604a4.553 4.553 0 00-.537-.143 7.224 7.224 0 00-.638-.102 31.64 31.64 0 00-1.51-.112c-.275-.04-.558-.008-.875-.023-1.587-.076-1.82-.198-2.334-.462l-.374-.191a23.168 23.168 0 00-2.225-.375 22.516 22.516 0 00-2.23-.162 6.323 6.323 0 01-.907-.075 33.223 33.223 0 00-3.012-.296c-.605-.027-1.258-.1-1.879-.206a10.609 10.609 0 01-1.623-.398 9.092 9.092 0 00-1.474-.353c-.661-.093-.722-.204-.353-.289a28.15 28.15 0 011.536-.283c.191-.03.31-.08.342-.143.033-.063-.022-.137-.157-.213-.087-.132-.103-.256-.045-.371.03-.048.01-.102-.062-.16a1.269 1.269 0 00-.352-.176 4.566 4.566 0 00-.58-.16 7.6 7.6 0 00-.701-.115 76.744 76.744 0 00-3.051-.391c-.436-.05-.871-.112-1.295-.184a32.213 32.213 0 00-2.733-.435 6.691 6.691 0 01-1.208-.237 39.689 39.689 0 01-2.861-.872 5.191 5.191 0 00-.797-.268 10.9 10.9 0 00-1.053-.216c-.303-.043-.55-.137-.783-.2-.17-.146-.188-.281-.053-.393.135-.111.42-.195.826-.244.385-.06.746-.127 1.079-.2a11.6 11.6 0 011.414-.103c.634-.032 1.103-.121 1.345-.257-1.735-.247-3.386-.6-4.908-.518l-1.156-.223.124-.24c.275-.131.361-.297.25-.484-.09-.09-.082-.172.024-.238.107-.065.308-.112.584-.135 1.632-.24 3.52-.403 5.051-.675.48-.051 1.042-.074 1.662-.069.6-.016.575-.14-.115-.29-.388-.08-.783-.156-1.184-.229-1.768-.012-2.488.352-4.506.25l-.936-.478c-.253-.008-.498-.01-.734-.009l-3.384.195c-.282.01-.501.043-.633.096-.132.053-.171.123-.114.204.023.098-.023.188-.138.267-.073.055-.026.128.132.204.355.17-.101.194-.39.237a2.283 2.283 0 01-.25-.001 3.388 3.388 0 01-.552-.079 1.69 1.69 0 01-.217-.065c-.508-.161-.952-.332-1.451-.51.354-.17-.063-.451.49-.605.062-.031.087-.069.073-.11-.014-.043-.066-.088-.153-.135-.226-.12-.333-.236-.311-.338.021-.101.17-.185.433-.242l.032-.06c-.692-.206-.509-.39-.78-.607l-.666-.142c-1.657-.343-1.66-.337-3.086-.325-.287-.13.078-.15.352-.165l2.293-.146c1.5-.098 3.043-.166 4.719-.203 1.675-.037 3.543-.16 5.274-.248a.61.61 0 00.196-.04c.04-.02.054-.043.039-.07a1.711 1.711 0 00-.264-.083 3.426 3.426 0 00-.341-.063c-.551-.078-1.117-.129-1.704-.194l-1.095-.114-.337-.149c-.219-.09-.368-.201-.66-.267a6.721 6.721 0 00-.755-.107 4.95 4.95 0 00-.69-.014c-.548.03-1.044.073-1.567.112-.523.04-.811.082-1.265.101-.921.009-1.812.032-2.667.07-.721.088-1.388.193-1.997.313-.379.048-.734.105-1.382.043a3.511 3.511 0 01-.749-.209c-.176-.079-.25-.157-.212-.22.035-.05.133-.09.286-.115.153-.025.355-.035.587-.03.65-.01 1.252-.04 1.793-.092.752-.094 1.668-.135 2.694-.12.348.014.58-.036.885-.053.304-.016.562-.057.901-.027 1.054.078 1.56-.042 2.191-.12.214-.034.347-.09.383-.16.037-.07-.024-.154-.175-.24a8.44 8.44 0 00-1.065-.515 5.528 5.528 0 00-.801-.233 9.85 9.85 0 00-1.003-.166c-.208-.106-.318-.209-.322-.301-.004-.093.099-.17.3-.228.51-.13.964-.263 2.109-.19.538.027 1.045.033 1.5.015a27.67 27.67 0 013.382.152c.313.031.62.053.913.064 2.09.075 4.082.113 6.08.14 1.057.013 2.124.009 3.229.046 2.59.081 4.948.04 7.448.066 1.31.013 2.481-.041 3.455-.16.19-.041.352-.088.486-.14a18.86 18.86 0 00-2.057-.32c-.704-.071-1.38-.1-1.964-.084a7.05 7.05 0 01-1.197.02 12.156 12.156 0 01-1.42-.165l1.356-.046c.898-.022 1.819-.029 2.692-.06 1.389-.054 2.675-.14 4.113-.175 1.16-.032 2.2-.114 3.083-.243a22.25 22.25 0 012.173-.2c.573-.02.573-.02.939-.212-.29-.125-.666-.143-1.02-.145a93.977 93.977 0 00-6.012-.041c-.945.004-1.784.057-2.476.156-.17.042-.603.022-.95.008a60.158 60.158 0 00-3.115.018 50.843 50.843 0 01-4.476-.038c-.305-.097.046-.089.063-.122 1.245-.062 2.465-.134 3.735-.187a20.29 20.29 0 011.108-.028c1.459.033 2.674-.058 3.476-.259.04-.078.568-.069.801-.119.115-.044.191-.095.227-.153-.34-.144-.724-.145-1.02-.145-.857.016-1.682.047-2.471.091a29.88 29.88 0 01-2.413.034c-.641-.019-1.189.01-1.835.003a21.12 21.12 0 01-1.082-.082c.41-.1.967-.162 1.631-.18.505-.06 1.135-.079 1.216-.234-.238-.112-.504-.114-.717-.102-.443 0-.871.006-1.282.021-.872.032-1.815.032-2.81.001a24.19 24.19 0 00-1.485.01c-1.047.025-2.052.08-3.011.105-1.965.025-3.758.117-5.646.166-.42.012-.797.054-1.35-.019-.555-.072-.58-.082-.645-.127-.155-.075-.202-.148-.13-.204.109-.051.323-.08.603-.081a97.125 97.125 0 004.793-.347c.662-.03 1.242-.09 1.72-.18.379-.062.828-.102 1.334-.121a66.535 66.535 0 012.298-.098c.37-.011.685-.044.926-.097.24-.053.403-.125.476-.212l-.975-.287a20.123 20.123 0 00-.455-.035l-8.092.207-.802.006c-.878-.017-1.093-.06-1.926-.393 1.902-.078 3.396-.307 4.335-.663a13.074 13.074 0 00-.688-.097 49.794 49.794 0 00-4.254-.067c-.771.004-1.564-.007-2.36-.012.233-.164 1.124-.115 1.705-.152 1.389-.058 2.616-.178 3.644-.355.354-.07.798-.113 1.31-.13.512-.007.94-.048 1.246-.123.307-.074.482-.178.512-.303.048-.113.152-.218.31-.314-.28-.136-.724-.266-1.25-.366-.525-.1-1.096-.163-1.604-.177a58.39 58.39 0 01-3.35-.272 17.06 17.06 0 00-1.63-.106c-.449-.005-.959-.05-1.452-.13a7.533 7.533 0 01-1.28-.305c-.456-.149-.881-.299-1.307-.449-.425-.15-.918-.339-1.415-.523a27.836 27.836 0 00-1.272-.055 7.987 7.987 0 01-1.07-.058 8.527 8.527 0 01-1.078-.193c.19-.08.404-.152.63-.245-.31-.123-.535-.25-.66-.37-.126-.12-.15-.233-.072-.331.046-.09-.29-.239-.407-.357-.15-.101-.178-.196-.08-.272.096-.076.314-.129.625-.152.385-.043.698-.107.927-.19.075-.023.114-.052.112-.087-.003-.035-.045-.074-.125-.114a1.712 1.712 0 00-.33-.114 4.044 4.044 0 00-.456-.086c-.496-.06-.988-.1-1.448-.116a86.928 86.928 0 00-2.279-.054 22.147 22.147 0 01-2.588-.2c-.799-.114-1.515-.216-1.906-.432-.39-.217-1.015-.21-1.495-.368.27-.142.749-.24 1.39-.286.42-.016.77-.059 1.028-.125s.419-.155.472-.26l-1.458-.44c-1.165-.206-1.81-.047-3.068-.13l1.297-.162c.026-.016.036-.035.029-.056-.126-.328-.326-.399-1.652-.58l-.744-.106-1.177-.126c-.189-.067-.319-.137-.378-.203-.06-.066-.046-.126.04-.173.173-.08.225-.18.153-.295-.114-.075-.124-.145-.027-.197.097-.052.294-.082.558-.086.21-.006.225-.093.34-.143.113-.068.308-.12.57-.153a6.61 6.61 0 01.948-.037c1.07.006 2.074-.02 2.997-.077l-.166-.023c.962.05 1.86.057 2.653.018.794-.049 1.813-.017 2.656-.047.687.007 1.21-.06 1.458-.187.24-.122 1.112-.093 1.78-.07.396.015.779.021 1.144.019.49-.028 1.103-.002 1.737.073.19.023.377.035.543.035 1.61.032 3.218.069 4.807.085.366-.01.796.013 1.239.063.186.022.367.03.52.026 2.51-.05 5.342.077 7.802.008.298-.016.629-.02.981-.01.793.04 1.482.015 1.961-.074.259-.047.59-.073.974-.076.384-.003.81.016 1.254.058.737.054 1.419.06 1.972.017a78.66 78.66 0 013.397-.05c.363.008.68-.008.93-.045s.425-.095.512-.168c-.29-.125-.608-.14-.91-.129-1.168-.028-2.333-.062-3.48-.076a55.176 55.176 0 00-2.94-.035 8.948 8.948 0 01-1.6-.108 11.838 11.838 0 00-1.992-.15c-.436.002-.897-.007-1.375-.029a8.11 8.11 0 01-.91-.129 4.05 4.05 0 00-.737-.093 2.388 2.388 0 00-.313.008.669.669 0 00-.2.045c-.443.17-1.433.083-2.281.064-1.271-.287-2.217-.117-3.404-.28a2.983 2.983 0 00-.272-.019 1.68 1.68 0 00-.226.009c-2.298.097-4.976.016-7.39.05a6.806 6.806 0 01-.89-.05c-2.07-.243-4.058-.313-5.579-.194a6.23 6.23 0 01-.621.002 24.784 24.784 0 00-2.9-.113c-1.356-.007-2.66-.001-4.039-.024-.95-.032-1.784.002-2.417.099-.02.039-.442-.003-.765-.007-.186-.098-.347-.187-.54-.274a3.422 3.422 0 00-.752-.319 9.93 9.93 0 00-1.128-.276c-.716-.102-.788-.25-.286-.303C3.825.94 5.449.867 7.287.904c1.536.004 3.1.01 4.658.029.91.015 1.867.05 2.751.056.299.013.605.032.917.058.382.037.753.057 1.093.06a38.721 38.721 0 013.596.08c.471.018.924.024 1.35.018a45.953 45.953 0 013.257.05c.716.032 1.41.049 2.075.05.234.003.426-.023.652-.003 1.99.21 3.4.059 5.192.14.87.022 1.703.022 2.484 0 1.525 0 3.092.024 4.696.07 2.12.073 4.086.047 6.11.078.4.006.786.005 1.156-.003a82.62 82.62 0 015.807.036 9.35 9.35 0 001.234-.042c.346-.04.61-.103.777-.187.07-.057.025-.132-.128-.209a10.974 10.974 0 00-.856-.289L42.647.584a45.52 45.52 0 00-1.406-.027 136.35 136.35 0 01-4.133-.073C35.711.441 34.376.45 33.023.436a44.457 44.457 0 01-1.227-.03 238.298 238.298 0 00-8.249-.234C22.425.168 21.214.11 20.07.091 18.926.072 17.363.065 16.006.058h-4.2c-.826-.003-1.63.008-2.432.014C8.4-.335 8.066-.43 6.768-.608a10.52 10.52 0 00-1.302-.113C4.178-.69 2.562-.823 1.34-.805c-.737-.01-1.363.036-1.813.13-.39.075-.837.133-1.333.176-1.357-.348-1.477-.574-.456-.662.277-.02.658-.014.858-.058.115-.026.271-.041.458-.044.186-.002.396.008.615.03.689.056 1.334.07 1.872.038.506-.042 1.127-.04 1.802.005.496.07.932-.03 1.36-.058.43-.028.781-.08 1.451-.003.123.015.245.025.356.027.112.002.21-.002.288-.013.72-.05 1.578-.045 2.506.015 1.423.059 2.758.061 3.96.007.718-.048 1.331-.132 1.814-.25a2.3 2.3 0 01.568-.07 41.04 41.04 0 013.852.273 42.658 42.658 0 004.382.276c1.325 0 2.703.03 4.124.089.877.032 1.722.044 2.525.036.826-.004 1.707.02 2.624.073.912.044 1.715.019 2.314-.071a1.94 1.94 0 00.473-.172c-1.335-.213-2.716-.322-3.865-.304-.436-.014-.798 0-1.258-.083l-.015.028a1.64 1.64 0 01-.387.012 3.034 3.034 0 01-.47-.068l.143-.278c.875.013 1.725.012 2.545-.003.691-.022 1.63.165 2.228.095 1.167.088 1.91-.034 2.957.002 1.046.035 2.2.15 3.246.185.913.02 1.8.024 2.655.013a9.041 9.041 0 011 .01c.512.042.989.05 1.375.02.386-.028.666-.091.808-.181a9.268 9.268 0 00-.521-.307c.382-.093.962-.132 1.655-.112l.978-.004c.26.002.457-.023.553-.07.097-.048.083-.114-.037-.185-1.855-.36-1.923-.399-3.284-.168l-1.808-.107.03-.002zm24.451.986l-.137-.02.137.02zM294.2 36.623l-.032.061.035-.067.303.043.02-.038-.326.001zM250.196 9.799a48.569 48.569 0 00-1.295-.184 2.442 2.442 0 00-.31-.005.754.754 0 00-.208.033c-.034.067.208.113.428.145.278.042.562.069.823.077a3.64 3.64 0 00.66-.028l.249-.024-.347-.014zM29.553 26.071c.282.011.55.013.796.005 1.092-.054 2.138-.132 3.258-.182 1.414-.127 3.038-.179 4.812-.153.693.012 1.278-.03 1.688-.12.245-.047.561-.076.93-.082l4.69-.147c.289-.03.54-.073.745-.127l-.854-.121a4.427 4.427 0 00-.855.052c-.233.069-.627.096-1.104.076a45.12 45.12 0 00-1.406-.026c-.86.003-1.725.018-2.587.027-.335.19-1.326.104-2.174.085l-.655.009c-2.141.099-4.186.235-6.126.408-.375.03-.698.076-.959.14-.098.048-.13.109-.092.177l-.138-.02.03-.001zm95.619 18.287c.52.014 1.061.04 1.615.08.427.041.844.066 1.234.074 2.184.043 4.46.142 6.797.296.305.023.599.034.869.034l1.913-.04c.603-.021.615-.044.176-.339a37.21 37.21 0 00-1.102-.156c-.221-.032-.579-.082-.663-.035-.511.13-1.443.046-2.227.019-2.27-.072-4.611-.177-6.903-.263a32.493 32.493 0 00-1.403-.032 6.93 6.93 0 00-.752.024.784.784 0 00-.157.019c-.04.01-.065.023-.073.038-.008.016.001.034.025.053a.452.452 0 00.119.057c.187.066.404.129.642.187l-.11-.016zm16.629-42.841l2.236-.035c.268-.004.495-.043.782-.027a41.78 41.78 0 004.193-.044c.424-.033.919-.04 1.459-.02 1.655.062 3.215.064 4.64.008.92-.011 1.782-.049 2.572-.113.061-.014.099-.034.111-.058.013-.024-.001-.052-.039-.08-.01-.019-.037-.039-.079-.058a1.039 1.039 0 00-.166-.056 2.574 2.574 0 00-.459-.07 23.325 23.325 0 00-2.764-.088c-.759.034-1.577.044-2.441.03-.826-.004-1.386.108-2.407.023-.432-.028-.812-.02-1.078.026-.535.074-1.281.078-2.106.012a17.417 17.417 0 00-1.397-.044c-1.048.025-2.049.074-3.02.121a16.6 16.6 0 01-.978.005l-4.862-.093c-1.168-.028-2.333-.062-3.48-.076-.938-.029-1.81-.02-2.587.027-.828.05-1.731.07-2.693.06a227.67 227.67 0 01-4.601.034c-1.036.002-2.097-.005-3.18-.027-.548-.03-1.013-.006-1.306.065-.178.058-.597.01-.945-.003-1.855-.13-3.595-.161-5.099-.09a8.477 8.477 0 01-.627.012c-1.448-.002-2.948-.018-4.338-.018-.366.005-.71.02-1.029.045.034.04.131.083.272.12.14.039.312.068.481.082 1.315.112 2.584.17 3.754.175 1.949-.014 3.99.018 6.103.095 1.639.079 3.133.062 4.372-.048.968-.082 2.228-.051 3.563.088.571.066 1.125.092 1.587.076.445-.023.954-.017 1.5.015a56.48 56.48 0 003.298.086c1.017-.023 1.966-.085 3.011-.104 1.045-.019 2.636-.008 3.925-.04a87.688 87.688 0 013.822-.013zm-92.66-3.254c.118.172.536.279.985.324 1.55.204 3.082.29 4.34.246.678-.063 1.584-.039 2.537.068 1.11.11 2.148.128 2.93.051.193-.013.34-.042.428-.083l.055-.105a2.31 2.31 0 00-.295-.077 3.61 3.61 0 00-.35-.05L54.64-1.56l-.894-.044a53.485 53.485 0 00-4.604-.133zM59.237.985c.801.281.804.276 1.215.34 1.98.267 3.958.41 5.7.415.387-.001.716-.028.958-.08.124-.006.204-.028.22-.06.017-.033-.03-.073-.131-.112l-.637-.198a117.623 117.623 0 00-3.414-.204c-1.3-.059-2.453-.061-3.8-.085l-.11-.016zm65.839 42.13c.746.386.749.38 1.999.48a37.5 37.5 0 002.509.124c.97.012 1.964.033 2.931.051.236.013.436.002.562-.028.125-.031.166-.08.116-.138a2.499 2.499 0 00-.563-.173 5.27 5.27 0 00-.747-.097l-.528-.009c-.64-.02-1.306-.048-1.925-.052-.401.016-.866.003-1.359-.036-.492-.04-.999-.107-1.479-.194l-1.516.072zM63.223-1.232c.2.067.425.131.67.19.951.166 1.957.26 2.822.264.409.01.782-.027 1.199.027.746.07 1.47.108 2.13.11 0 0 .186-.015.247-.018l.127-.245a13 13 0 00-.965-.137c-1.09-.065-2.161-.11-3.23-.16-1.068-.05-1.44-.072-2.14-.094-.31.012-.599.033-.86.063zM39.616 29.201l1.426.501a7.08 7.08 0 001.228.022c.336-.029.557-.093.63-.182.117-.042.129-.105.032-.174-.096-.07-.293-.14-.55-.198a8.285 8.285 0 00-.828-.182c-.3-.05-.61-.089-.912-.113l-1.026.326zm11.878-2.495a23.353 23.353 0 00-2.61-.101c-.493.05-1.162.034-1.87-.045-1.285-.155-2.525-.199-3.456-.12 0 0-.035.067-.193.086-.158.02.468.067.606.086 1.01.048 2.027.085 2.905.102.546 0 1.122.015 1.72.047.824.05 1.605.065 2.313.047 0 0 .273-.014.582-.096l.003-.006zM151.142.61a14.613 14.613 0 00-2.798-.308c-.327-.004-.591.02-.751.071-.161.051-.207.125-.133.21l1.019.145c.859-.004 1.593-.049 2.663-.118zm83.428 7.952a9.572 9.572 0 00-1.137-.168 7.12 7.12 0 00-1.042-.022c-.152.008-.049.095-.075.145-.017.011-.017.025.001.04a.294.294 0 00.097.047 1.642 1.642 0 00.358.06c.388.034.754.043 1.066.03.312-.015.559-.052.721-.11l.011-.022zm5.59 1.086a.973.973 0 00-.332-.132 3.423 3.423 0 00-.531-.086 8.114 8.114 0 00-.877.037c-.277.02-.078.15.297.227.158.03.327.055.494.07.167.016.326.022.466.018.139-.003.255-.016.338-.037.083-.022.13-.051.139-.086l.006-.011zM77.734-.755c-.834-.16-1.475-.12-2.182-.184-.706-.065-.88-.072-.785.031.095.103.579.083.882.126.41.057.821.09 1.19.094.368.005.678-.018.895-.067zm173.782 27.098a28.014 28.014 0 00-1.291-.075c-.055.015-.09.034-.101.057-.012.023-.001.049.032.076 0 0 .282.082.448.106.609.08.639-.035.912-.164zm62.433 14.922c.299.108.438.182.678.234.11.018.223.03.332.038.109.007.211.008.297.003.105-.03.13-.079.069-.133 0 0-.305-.097-.421-.102-.33-.023-.651-.036-.955-.04zM63.539-1.67c-.634-.09-1.24-.176-1.679-.07 1.007.112 1.007.112 1.679.07zM73.803-.644c-.64-.193-1.016-.21-1.323-.188-.065.006-.108.018-.123.035-.014.018 0 .04.042.061a.813.813 0 00.19.062c.083.018.175.031.263.038.334.006.652.003.95-.008zm32.933.081c.015-.028.032-.061-.133-.085a1.256 1.256 0 00-.303-.043l-.029.056.465.072zm22.87 46.184l-.368.025.165.024.437.014-.234-.063zM259.194 9.213c-.138-.02-.276-.04-.296 0-.029.006-.047.014-.052.025-.006.01.001.023.02.036l.276.039.052-.1zm-21.455.311a1.89 1.89 0 00-.241.008l-.017.033.276.04-.018-.08zM50.766 17.478a3.608 3.608 0 00-.33-.047l-.138-.02s.148.057.23.069c.083.012.15-.003.238-.002z" fill="red"/></g></svg>